solid OpenSCAD_Model
  facet normal -1 0 0
    outer loop
      vertex 0 -18 0
      vertex 0 -18 11.5
      vertex 0 15.4077 0
    endloop
  endfacet
  facet normal -1 0 0
    outer loop
      vertex 0 5.00481 7.75
      vertex 0 -18 11.5
      vertex 0 0 11.5
    endloop
  endfacet
  facet normal -1 0 0
    outer loop
      vertex 0 4.25556 9.55886
      vertex 0 0 11.5
      vertex 0 4 11.5
    endloop
  endfacet
  facet normal -1 0 0
    outer loop
      vertex 0 6.1967 6.1967
      vertex 0 -18 11.5
      vertex 0 5.00481 7.75
    endloop
  endfacet
  facet normal -1 0 0
    outer loop
      vertex 0 9.55886 4.25556
      vertex 0 15.4077 0
      vertex 0 7.75 5.00481
    endloop
  endfacet
  facet normal -1 0 0
    outer loop
      vertex 0 7.75 5.00481
      vertex 0 -18 11.5
      vertex 0 6.1967 6.1967
    endloop
  endfacet
  facet normal -1 0 0
    outer loop
      vertex 0 15.4077 0
      vertex 0 -18 11.5
      vertex 0 7.75 5.00481
    endloop
  endfacet
  facet normal -1 0 0
    outer loop
      vertex 0 11.5 4
      vertex 0 15.4077 0
      vertex 0 9.55886 4.25556
    endloop
  endfacet
  facet normal -1 0 0
    outer loop
      vertex 0 15.4077 0
      vertex 0 11.5 4
      vertex 0 13.4411 4.25556
    endloop
  endfacet
  facet normal -1 0 0
    outer loop
      vertex 0 13.4411 4.25556
      vertex 0 15.25 5.00481
      vertex 0 15.4077 0
    endloop
  endfacet
  facet normal -1 0 0
    outer loop
      vertex 0 15.25 5.00481
      vertex 0 15.4077 5.12581
      vertex 0 15.4077 0
    endloop
  endfacet
  facet normal -1 0 0
    outer loop
      vertex 0 5.00481 7.75
      vertex 0 0 11.5
      vertex 0 4.25556 9.55886
    endloop
  endfacet
  facet normal -0.980785 -0.19509 0
    outer loop
      vertex 0 -18 0
      vertex 0.380602 -19.9134 0
      vertex 0 -18 11.5
    endloop
  endfacet
  facet normal -0.980785 -0.19509 0
    outer loop
      vertex 0 -18 11.5
      vertex 0.380602 -19.9134 0
      vertex 0.380602 -19.9134 11.5
    endloop
  endfacet
  facet normal 0 0 -1
    outer loop
      vertex 0 -18 0
      vertex 0 15.4077 0
      vertex 0.380602 -19.9134 0
    endloop
  endfacet
  facet normal 0 0 -1
    outer loop
      vertex 0.380602 -19.9134 0
      vertex 0 15.4077 0
      vertex 1.11022e-16 15.4077 0
    endloop
  endfacet
  facet normal 0 0 -1
    outer loop
      vertex 0.380602 -19.9134 0
      vertex 1.11022e-16 15.4077 0
      vertex 1.11022e-16 15.5 0
    endloop
  endfacet
  facet normal 0 0 -1
    outer loop
      vertex 0.380602 -19.9134 0
      vertex 1.11022e-16 15.5 0
      vertex 0.0532922 15.5 0
    endloop
  endfacet
  facet normal 0 0 -1
    outer loop
      vertex 0.380602 -19.9134 0
      vertex 0.0532922 15.5 0
      vertex 7.27017 28 0
    endloop
  endfacet
  facet normal 0 0 -1
    outer loop
      vertex 14.4515 25.3605 0
      vertex 7.27017 28 0
      vertex 110.73 28 0
    endloop
  endfacet
  facet normal 0 0 -1
    outer loop
      vertex 105.992 21.1288 0
      vertex 110.73 28 0
      vertex 117.947 15.5 0
    endloop
  endfacet
  facet normal 0 0 -1
    outer loop
      vertex 114.65 0 0
      vertex 118 15.4077 0
      vertex 118 -18 0
    endloop
  endfacet
  facet normal 0 0 -1
    outer loop
      vertex 108.794 -20.5322 0
      vertex 117.619 -19.9134 0
      vertex 116.536 -21.5355 0
    endloop
  endfacet
  facet normal 0 0 -1
    outer loop
      vertex 110.16 -22 0
      vertex 116.536 -21.5355 0
      vertex 114.913 -22.6194 0
    endloop
  endfacet
  facet normal 0 0 -1
    outer loop
      vertex 111.087 -22.6194 0
      vertex 114.913 -22.6194 0
      vertex 113 -23 0
    endloop
  endfacet
  facet normal 0 0 -1
    outer loop
      vertex 5.825 -1.42894 0
      vertex 3.35 -18 0
      vertex 4.175 -1.42894 0
    endloop
  endfacet
  facet normal 0 0 -1
    outer loop
      vertex 110.049 -21.9263 0
      vertex 116.536 -21.5355 0
      vertex 110.16 -22 0
    endloop
  endfacet
  facet normal 0 0 -1
    outer loop
      vertex 110.049 -21.9263 0
      vertex 110.16 -22 0
      vertex 110.116 -22 0
    endloop
  endfacet
  facet normal 0 0 -1
    outer loop
      vertex 109.464 -21.5355 0
      vertex 116.536 -21.5355 0
      vertex 110.049 -21.9263 0
    endloop
  endfacet
  facet normal 0 0 -1
    outer loop
      vertex 108.794 -20.5322 0
      vertex 116.536 -21.5355 0
      vertex 109.464 -21.5355 0
    endloop
  endfacet
  facet normal 0 0 -1
    outer loop
      vertex 106.843 -18.3651 0
      vertex 112.175 -19.4289 0
      vertex 108.794 -20.5322 0
    endloop
  endfacet
  facet normal 0 0 -1
    outer loop
      vertex 94.75 -9.57918 0
      vertex 111.35 -18 0
      vertex 106.843 -18.3651 0
    endloop
  endfacet
  facet normal 0 0 -1
    outer loop
      vertex 112.175 -19.4289 0
      vertex 117.619 -19.9134 0
      vertex 108.794 -20.5322 0
    endloop
  endfacet
  facet normal 0 0 -1
    outer loop
      vertex 81.0947 -3.49946 0
      vertex 118 15.4077 0
      vertex 94.75 -9.57918 0
    endloop
  endfacet
  facet normal 0 0 -1
    outer loop
      vertex 112.175 -19.4289 0
      vertex 106.843 -18.3651 0
      vertex 111.35 -18 0
    endloop
  endfacet
  facet normal 0 0 -1
    outer loop
      vertex 66.4738 -0.391684 0
      vertex 118 15.4077 0
      vertex 81.0947 -3.49946 0
    endloop
  endfacet
  facet normal 0 0 -1
    outer loop
      vertex 5.825 -19.4289 0
      vertex 0.380602 -19.9134 0
      vertex 4.175 -19.4289 0
    endloop
  endfacet
  facet normal 0 0 -1
    outer loop
      vertex 101.557 21.9107 0
      vertex 51.5262 -0.391684 0
      vertex 101.557 23.6893 0
    endloop
  endfacet
  facet normal 0 0 -1
    outer loop
      vertex 6.65 0 0
      vertex 7.27017 28 0
      vertex 23.25 -9.57918 0
    endloop
  endfacet
  facet normal 0 0 -1
    outer loop
      vertex 9.20595 -20.5322 0
      vertex 0.380602 -19.9134 0
      vertex 5.825 -19.4289 0
    endloop
  endfacet
  facet normal 0 0 -1
    outer loop
      vertex 4.175 -19.4289 0
      vertex 0.380602 -19.9134 0
      vertex 3.35 -18 0
    endloop
  endfacet
  facet normal 0 0 -1
    outer loop
      vertex 0.380602 -19.9134 0
      vertex 9.20595 -20.5322 0
      vertex 8.53553 -21.5355 0
    endloop
  endfacet
  facet normal 0 0 -1
    outer loop
      vertex 0.380602 -19.9134 0
      vertex 8.53553 -21.5355 0
      vertex 7.95064 -21.9263 0
    endloop
  endfacet
  facet normal 0 0 -1
    outer loop
      vertex 7.95064 -21.9263 0
      vertex 7.88432 -22 0
      vertex 0.380602 -19.9134 0
    endloop
  endfacet
  facet normal 0 0 -1
    outer loop
      vertex 0.380602 -19.9134 0
      vertex 7.88432 -22 0
      vertex 7.84041 -22 0
    endloop
  endfacet
  facet normal 0 0 -1
    outer loop
      vertex 7.84041 -22 0
      vertex 6.91342 -22.6194 0
      vertex 0.380602 -19.9134 0
    endloop
  endfacet
  facet normal 0 0 -1
    outer loop
      vertex 0.380602 -19.9134 0
      vertex 6.91342 -22.6194 0
      vertex 5 -23 0
    endloop
  endfacet
  facet normal 0 0 -1
    outer loop
      vertex 0.380602 -19.9134 0
      vertex 5 -23 0
      vertex 3.08658 -22.6194 0
    endloop
  endfacet
  facet normal 0 0 -1
    outer loop
      vertex 0.380602 -19.9134 0
      vertex 3.08658 -22.6194 0
      vertex 1.46447 -21.5355 0
    endloop
  endfacet
  facet normal 0 0 -1
    outer loop
      vertex 6.65 -18 0
      vertex 11.1572 -18.3651 0
      vertex 5.825 -19.4289 0
    endloop
  endfacet
  facet normal 0 0 -1
    outer loop
      vertex 51.5262 -0.391684 0
      vertex 118 15.4077 0
      vertex 66.4738 -0.391684 0
    endloop
  endfacet
  facet normal 0 0 -1
    outer loop
      vertex 36.9053 -3.49946 0
      vertex 101.557 23.6893 0
      vertex 51.5262 -0.391684 0
    endloop
  endfacet
  facet normal 0 0 -1
    outer loop
      vertex 5.825 -1.42894 0
      vertex 4.175 -16.5711 0
      vertex 3.35 -18 0
    endloop
  endfacet
  facet normal 0 0 -1
    outer loop
      vertex 0.380602 -19.9134 0
      vertex 7.27017 28 0
      vertex 3.35 0 0
    endloop
  endfacet
  facet normal 0 0 -1
    outer loop
      vertex 0.380602 -19.9134 0
      vertex 3.35 0 0
      vertex 3.35 -18 0
    endloop
  endfacet
  facet normal 0 0 -1
    outer loop
      vertex 11.5568 21.9107 0
      vertex 7.27017 28 0
      vertex 11.5568 23.6893 0
    endloop
  endfacet
  facet normal 0 0 -1
    outer loop
      vertex 3.35 0 0
      vertex 4.175 -1.42894 0
      vertex 3.35 -18 0
    endloop
  endfacet
  facet normal 0 0 -1
    outer loop
      vertex 4.175 1.42894 0
      vertex 7.27017 28 0
      vertex 5.825 1.42894 0
    endloop
  endfacet
  facet normal 0 0 -1
    outer loop
      vertex 4.175 -16.5711 0
      vertex 5.825 -1.42894 0
      vertex 5.825 -16.5711 0
    endloop
  endfacet
  facet normal 0 0 -1
    outer loop
      vertex 5.825 1.42894 0
      vertex 7.27017 28 0
      vertex 6.65 0 0
    endloop
  endfacet
  facet normal 0 0 -1
    outer loop
      vertex 5.825 -16.5711 0
      vertex 6.65 0 0
      vertex 23.25 -9.57918 0
    endloop
  endfacet
  facet normal 0 0 -1
    outer loop
      vertex 6.65 0 0
      vertex 5.825 -16.5711 0
      vertex 5.825 -1.42894 0
    endloop
  endfacet
  facet normal 0 0 -1
    outer loop
      vertex 3.35 0 0
      vertex 7.27017 28 0
      vertex 4.175 1.42894 0
    endloop
  endfacet
  facet normal 0 0 -1
    outer loop
      vertex 23.25 -9.57918 0
      vertex 7.27017 28 0
      vertex 11.5568 21.9107 0
    endloop
  endfacet
  facet normal 0 0 -1
    outer loop
      vertex 23.25 -9.57918 0
      vertex 11.5568 21.9107 0
      vertex 12.7 20.5483 0
    endloop
  endfacet
  facet normal 0 0 -1
    outer loop
      vertex 23.25 -9.57918 0
      vertex 12.7 20.5483 0
      vertex 36.9053 -3.49946 0
    endloop
  endfacet
  facet normal 0 0 -1
    outer loop
      vertex 14.4515 20.2395 0
      vertex 36.9053 -3.49946 0
      vertex 12.7 20.5483 0
    endloop
  endfacet
  facet normal 0 0 -1
    outer loop
      vertex 15.9917 21.1288 0
      vertex 36.9053 -3.49946 0
      vertex 14.4515 20.2395 0
    endloop
  endfacet
  facet normal 0 0 -1
    outer loop
      vertex 15.9917 24.4712 0
      vertex 110.73 28 0
      vertex 16.6 22.8 0
    endloop
  endfacet
  facet normal 0 0 -1
    outer loop
      vertex 104.451 25.3605 0
      vertex 15.9917 21.1288 0
      vertex 110.73 28 0
    endloop
  endfacet
  facet normal 0 0 -1
    outer loop
      vertex 15.9917 21.1288 0
      vertex 16.6 22.8 0
      vertex 110.73 28 0
    endloop
  endfacet
  facet normal 0 0 -1
    outer loop
      vertex 101.557 23.6893 0
      vertex 36.9053 -3.49946 0
      vertex 102.7 25.0517 0
    endloop
  endfacet
  facet normal 0 0 -1
    outer loop
      vertex 12.7 25.0517 0
      vertex 7.27017 28 0
      vertex 14.4515 25.3605 0
    endloop
  endfacet
  facet normal 0 0 -1
    outer loop
      vertex 111.35 -18 0
      vertex 94.75 -9.57918 0
      vertex 112.175 -16.5711 0
    endloop
  endfacet
  facet normal 0 0 -1
    outer loop
      vertex 15.9917 24.4712 0
      vertex 14.4515 25.3605 0
      vertex 110.73 28 0
    endloop
  endfacet
  facet normal 0 0 -1
    outer loop
      vertex 11.5568 23.6893 0
      vertex 7.27017 28 0
      vertex 12.7 25.0517 0
    endloop
  endfacet
  facet normal 0 0 -1
    outer loop
      vertex 11.1572 -18.3651 0
      vertex 6.65 -18 0
      vertex 23.25 -9.57918 0
    endloop
  endfacet
  facet normal 0 0 -1
    outer loop
      vertex 105.992 21.1288 0
      vertex 117.947 15.5 0
      vertex 104.451 20.2395 0
    endloop
  endfacet
  facet normal 0 0 -1
    outer loop
      vertex 51.5262 -0.391684 0
      vertex 101.557 21.9107 0
      vertex 102.7 20.5483 0
    endloop
  endfacet
  facet normal 0 0 -1
    outer loop
      vertex 51.5262 -0.391684 0
      vertex 102.7 20.5483 0
      vertex 117.947 15.5 0
    endloop
  endfacet
  facet normal 0 0 -1
    outer loop
      vertex 102.7 20.5483 0
      vertex 104.451 20.2395 0
      vertex 117.947 15.5 0
    endloop
  endfacet
  facet normal 0 0 -1
    outer loop
      vertex 106.6 22.8 0
      vertex 110.73 28 0
      vertex 105.992 21.1288 0
    endloop
  endfacet
  facet normal 0 0 -1
    outer loop
      vertex 104.451 25.3605 0
      vertex 110.73 28 0
      vertex 105.992 24.4712 0
    endloop
  endfacet
  facet normal 0 0 -1
    outer loop
      vertex 105.992 24.4712 0
      vertex 110.73 28 0
      vertex 106.6 22.8 0
    endloop
  endfacet
  facet normal 0 0 -1
    outer loop
      vertex 113.825 1.42894 0
      vertex 118 15.4077 0
      vertex 114.65 0 0
    endloop
  endfacet
  facet normal 0 0 -1
    outer loop
      vertex 102.7 25.0517 0
      vertex 15.9917 21.1288 0
      vertex 104.451 25.3605 0
    endloop
  endfacet
  facet normal 0 0 -1
    outer loop
      vertex 36.9053 -3.49946 0
      vertex 15.9917 21.1288 0
      vertex 102.7 25.0517 0
    endloop
  endfacet
  facet normal 0 0 -1
    outer loop
      vertex 51.5262 -0.391684 0
      vertex 117.947 15.5 0
      vertex 118 15.5 0
    endloop
  endfacet
  facet normal 0 0 -1
    outer loop
      vertex 113.825 -16.5711 0
      vertex 94.75 -9.57918 0
      vertex 118 -18 0
    endloop
  endfacet
  facet normal 0 0 -1
    outer loop
      vertex 114.65 -18 0
      vertex 117.619 -19.9134 0
      vertex 113.825 -19.4289 0
    endloop
  endfacet
  facet normal 0 0 -1
    outer loop
      vertex 112.175 -19.4289 0
      vertex 113.825 -19.4289 0
      vertex 117.619 -19.9134 0
    endloop
  endfacet
  facet normal 0 0 -1
    outer loop
      vertex 51.5262 -0.391684 0
      vertex 118 15.5 0
      vertex 118 15.4077 0
    endloop
  endfacet
  facet normal 0 0 -1
    outer loop
      vertex 112.175 -16.5711 0
      vertex 94.75 -9.57918 0
      vertex 113.825 -16.5711 0
    endloop
  endfacet
  facet normal 0 0 -1
    outer loop
      vertex 114.65 -18 0
      vertex 113.825 -16.5711 0
      vertex 118 -18 0
    endloop
  endfacet
  facet normal 0 0 -1
    outer loop
      vertex 114.65 -18 0
      vertex 118 -18 0
      vertex 117.619 -19.9134 0
    endloop
  endfacet
  facet normal 0 0 -1
    outer loop
      vertex 94.75 -9.57918 0
      vertex 118 15.4077 0
      vertex 111.35 0 0
    endloop
  endfacet
  facet normal 0 0 -1
    outer loop
      vertex 94.75 -9.57918 0
      vertex 111.35 0 0
      vertex 118 -18 0
    endloop
  endfacet
  facet normal 0 0 -1
    outer loop
      vertex 111.35 0 0
      vertex 112.175 -1.42894 0
      vertex 118 -18 0
    endloop
  endfacet
  facet normal 0 0 -1
    outer loop
      vertex 112.175 1.42894 0
      vertex 118 15.4077 0
      vertex 113.825 1.42894 0
    endloop
  endfacet
  facet normal 0 0 -1
    outer loop
      vertex 112.175 -1.42894 0
      vertex 113.825 -1.42894 0
      vertex 118 -18 0
    endloop
  endfacet
  facet normal 0 0 -1
    outer loop
      vertex 113.825 -1.42894 0
      vertex 114.65 0 0
      vertex 118 -18 0
    endloop
  endfacet
  facet normal 0 0 -1
    outer loop
      vertex 111.35 0 0
      vertex 118 15.4077 0
      vertex 112.175 1.42894 0
    endloop
  endfacet
  facet normal 0 0 -1
    outer loop
      vertex 110.16 -22 0
      vertex 114.913 -22.6194 0
      vertex 111.087 -22.6194 0
    endloop
  endfacet
  facet normal 0 0 -1
    outer loop
      vertex 5.825 -16.5711 0
      vertex 23.25 -9.57918 0
      vertex 6.65 -18 0
    endloop
  endfacet
  facet normal 0 0 -1
    outer loop
      vertex 9.20595 -20.5322 0
      vertex 5.825 -19.4289 0
      vertex 11.1572 -18.3651 0
    endloop
  endfacet
  facet normal -0.866025 0.5 0
    outer loop
      vertex 0 15.4077 0
      vertex 0 15.4077 5.12581
      vertex 1.11022e-16 15.4077 0
    endloop
  endfacet
  facet normal -0.866025 0.5 0
    outer loop
      vertex 0.0532922 15.5 5
      vertex 0 15.4077 5.12581
      vertex 0.805753 16.8033 6.1967
    endloop
  endfacet
  facet normal -0.866025 0.5 0
    outer loop
      vertex 2.07402 19 11.5
      vertex 7.27017 28 19
      vertex 1.92647 18.7444 9.55886
    endloop
  endfacet
  facet normal -0.866025 0.5 0
    outer loop
      vertex 1.49389 17.9952 15.25
      vertex 0.630642 16.5 19
      vertex 1.92647 18.7444 13.4411
    endloop
  endfacet
  facet normal -0.866025 0.5 0
    outer loop
      vertex 0.805753 16.8033 16.8033
      vertex 0.630642 16.5 17.1066
      vertex 0.630642 16.5 19
    endloop
  endfacet
  facet normal -0.866025 0.5 0
    outer loop
      vertex 0.805753 16.8033 16.8033
      vertex 0.630642 16.5 19
      vertex 1.49389 17.9952 15.25
    endloop
  endfacet
  facet normal -0.866025 0.5 0
    outer loop
      vertex 1.92647 18.7444 13.4411
      vertex 0.630642 16.5 19
      vertex 7.27017 28 19
    endloop
  endfacet
  facet normal -0.866025 0.5 0
    outer loop
      vertex 1.92647 18.7444 13.4411
      vertex 7.27017 28 19
      vertex 2.07402 19 11.5
    endloop
  endfacet
  facet normal -0.866025 0.5 0
    outer loop
      vertex 0.0532922 15.5 0
      vertex 7.27017 28 19
      vertex 7.27017 28 0
    endloop
  endfacet
  facet normal -0.866025 0.5 0
    outer loop
      vertex 1.11022e-16 15.4077 5
      vertex 0 15.4077 5.12581
      vertex 0.0532922 15.5 5
    endloop
  endfacet
  facet normal -0.866025 0.5 0
    outer loop
      vertex 1.11022e-16 15.4077 0
      vertex 0 15.4077 5.12581
      vertex 1.11022e-16 15.4077 5
    endloop
  endfacet
  facet normal -0.866025 0.5 0
    outer loop
      vertex 1.49389 17.9952 7.75
      vertex 1.92647 18.7444 9.55886
      vertex 7.27017 28 19
    endloop
  endfacet
  facet normal -0.866025 0.5 0
    outer loop
      vertex 0.805753 16.8033 6.1967
      vertex 1.49389 17.9952 7.75
      vertex 7.27017 28 19
    endloop
  endfacet
  facet normal -0.866025 0.5 0
    outer loop
      vertex 0.805753 16.8033 6.1967
      vertex 7.27017 28 19
      vertex 0.0532922 15.5 0
    endloop
  endfacet
  facet normal -0.866025 0.5 0
    outer loop
      vertex 0.0532922 15.5 5
      vertex 0.805753 16.8033 6.1967
      vertex 0.0532922 15.5 0
    endloop
  endfacet
  facet normal -1.7616e-16 -0.608762 0.793353
    outer loop
      vertex 28 15.25 5.00481
      vertex 28 15.4077 5.12581
      vertex 27.1942 16.8033 6.1967
    endloop
  endfacet
  facet normal -1.7616e-16 -0.608762 0.793353
    outer loop
      vertex 0 15.4077 5.12581
      vertex 28 15.25 5.00481
      vertex 0.805753 16.8033 6.1967
    endloop
  endfacet
  facet normal -1.7616e-16 -0.608762 0.793353
    outer loop
      vertex 0.805753 16.8033 6.1967
      vertex 28 15.25 5.00481
      vertex 27.1942 16.8033 6.1967
    endloop
  endfacet
  facet normal -1.7616e-16 -0.608762 0.793353
    outer loop
      vertex 0 15.25 5.00481
      vertex 28 15.25 5.00481
      vertex 0 15.4077 5.12581
    endloop
  endfacet
  facet normal -2.05142e-16 -0.382683 0.92388
    outer loop
      vertex 28 15.25 5.00481
      vertex 1.11022e-16 15.2384 5
      vertex 1.6 15.2384 5
    endloop
  endfacet
  facet normal -2.05142e-16 -0.382683 0.92388
    outer loop
      vertex 26.4 15.2384 5
      vertex 28 15.25 5.00481
      vertex 1.6 15.2384 5
    endloop
  endfacet
  facet normal -2.05142e-16 -0.382683 0.92388
    outer loop
      vertex 1.11022e-16 13.4411 4.25556
      vertex 1.11022e-16 15.2384 5
      vertex 0 15.25 5.00481
    endloop
  endfacet
  facet normal -2.05142e-16 -0.382683 0.92388
    outer loop
      vertex 1.6 13.4411 4.25556
      vertex 26.4 13.4411 4.25556
      vertex 1.6 15.2384 5
    endloop
  endfacet
  facet normal -2.05142e-16 -0.382683 0.92388
    outer loop
      vertex 26.4 13.4411 4.25556
      vertex 26.4 15.2384 5
      vertex 1.6 15.2384 5
    endloop
  endfacet
  facet normal -2.05142e-16 -0.382683 0.92388
    outer loop
      vertex 28 15.2384 5
      vertex 28 15.25 5.00481
      vertex 26.4 15.2384 5
    endloop
  endfacet
  facet normal -2.05142e-16 -0.382683 0.92388
    outer loop
      vertex 28 13.4411 4.25556
      vertex 28 15.25 5.00481
      vertex 28 15.2384 5
    endloop
  endfacet
  facet normal -2.05142e-16 -0.382683 0.92388
    outer loop
      vertex 28 15.25 5.00481
      vertex 0 15.25 5.00481
      vertex 1.11022e-16 15.2384 5
    endloop
  endfacet
  facet normal -2.05142e-16 -0.382683 0.92388
    outer loop
      vertex 0 15.25 5.00481
      vertex 0 13.4411 4.25556
      vertex 1.11022e-16 13.4411 4.25556
    endloop
  endfacet
  facet normal -2.20145e-16 -0.130526 0.991445
    outer loop
      vertex 1.11022e-16 11.5 4
      vertex 1.11022e-16 13.4411 4.25556
      vertex 0 13.4411 4.25556
    endloop
  endfacet
  facet normal -2.20145e-16 -0.130526 0.991445
    outer loop
      vertex 0 11.5 4
      vertex 1.11022e-16 11.5 4
      vertex 0 13.4411 4.25556
    endloop
  endfacet
  facet normal -2.20145e-16 0.130526 0.991445
    outer loop
      vertex 1.11022e-16 9.55886 4.25556
      vertex 1.11022e-16 11.5 4
      vertex 0 11.5 4
    endloop
  endfacet
  facet normal -2.20145e-16 0.130526 0.991445
    outer loop
      vertex 0 9.55886 4.25556
      vertex 1.11022e-16 9.55886 4.25556
      vertex 0 11.5 4
    endloop
  endfacet
  facet normal -2.05142e-16 0.382683 0.92388
    outer loop
      vertex 26.4 7.76161 5
      vertex 28 7.75 5.00481
      vertex 28 7.76161 5
    endloop
  endfacet
  facet normal -2.05142e-16 0.382683 0.92388
    outer loop
      vertex 28 7.76161 5
      vertex 28 7.75 5.00481
      vertex 28 9.55886 4.25556
    endloop
  endfacet
  facet normal -2.05142e-16 0.382683 0.92388
    outer loop
      vertex 1.6 7.76161 5
      vertex 28 7.75 5.00481
      vertex 26.4 7.76161 5
    endloop
  endfacet
  facet normal -2.05142e-16 0.382683 0.92388
    outer loop
      vertex 1.6 9.55886 4.25556
      vertex 26.4 7.76161 5
      vertex 26.4 9.55886 4.25556
    endloop
  endfacet
  facet normal -2.05142e-16 0.382683 0.92388
    outer loop
      vertex 1.6 7.76161 5
      vertex 26.4 7.76161 5
      vertex 1.6 9.55886 4.25556
    endloop
  endfacet
  facet normal -2.05142e-16 0.382683 0.92388
    outer loop
      vertex 1.11022e-16 7.76161 5
      vertex 28 7.75 5.00481
      vertex 1.6 7.76161 5
    endloop
  endfacet
  facet normal -2.05142e-16 0.382683 0.92388
    outer loop
      vertex 0 7.75 5.00481
      vertex 28 7.75 5.00481
      vertex 1.11022e-16 7.76161 5
    endloop
  endfacet
  facet normal -2.05142e-16 0.382683 0.92388
    outer loop
      vertex 0 9.55886 4.25556
      vertex 1.11022e-16 7.76161 5
      vertex 1.11022e-16 9.55886 4.25556
    endloop
  endfacet
  facet normal -2.05142e-16 0.382683 0.92388
    outer loop
      vertex 0 7.75 5.00481
      vertex 1.11022e-16 7.76161 5
      vertex 0 9.55886 4.25556
    endloop
  endfacet
  facet normal -1.7616e-16 0.608762 0.793353
    outer loop
      vertex 28 6.1967 6.1967
      vertex 28 7.75 5.00481
      vertex 0 7.75 5.00481
    endloop
  endfacet
  facet normal -1.7616e-16 0.608762 0.793353
    outer loop
      vertex 0 6.1967 6.1967
      vertex 28 6.1967 6.1967
      vertex 0 7.75 5.00481
    endloop
  endfacet
  facet normal -1.35172e-16 0.793353 0.608762
    outer loop
      vertex 28 6.1967 6.1967
      vertex 0 6.1967 6.1967
      vertex 28 5.00481 7.75
    endloop
  endfacet
  facet normal -1.35172e-16 0.793353 0.608762
    outer loop
      vertex 28 5.00481 7.75
      vertex 0 6.1967 6.1967
      vertex 0 5.00481 7.75
    endloop
  endfacet
  facet normal -8.49728e-17 0.92388 0.382683
    outer loop
      vertex 28 5.00481 7.75
      vertex 0 5.00481 7.75
      vertex 28 4.25556 9.55886
    endloop
  endfacet
  facet normal -8.49728e-17 0.92388 0.382683
    outer loop
      vertex 28 4.25556 9.55886
      vertex 0 5.00481 7.75
      vertex 0 4.25556 9.55886
    endloop
  endfacet
  facet normal -2.89826e-17 0.991445 0.130526
    outer loop
      vertex 28 4.25556 9.55886
      vertex 0 4.25556 9.55886
      vertex 28 4 11.5
    endloop
  endfacet
  facet normal -2.89826e-17 0.991445 0.130526
    outer loop
      vertex 28 4 11.5
      vertex 0 4.25556 9.55886
      vertex 0 4 11.5
    endloop
  endfacet
  facet normal -2.22045e-16 1.22461e-16 1
    outer loop
      vertex 28 4 11.5
      vertex 4.175 1.42894 11.5
      vertex 5.825 1.42894 11.5
    endloop
  endfacet
  facet normal -2.22045e-16 1.22461e-16 1
    outer loop
      vertex 3.35 0 11.5
      vertex 4.175 1.42894 11.5
      vertex 0 4 11.5
    endloop
  endfacet
  facet normal -2.22045e-16 1.22461e-16 1
    outer loop
      vertex 6.65 0 11.5
      vertex 28 0 11.5
      vertex 5.825 1.42894 11.5
    endloop
  endfacet
  facet normal -2.22045e-16 1.22461e-16 1
    outer loop
      vertex 28 0 11.5
      vertex 28 4 11.5
      vertex 5.825 1.42894 11.5
    endloop
  endfacet
  facet normal -2.22045e-16 1.22461e-16 1
    outer loop
      vertex 28 4 11.5
      vertex 0 4 11.5
      vertex 4.175 1.42894 11.5
    endloop
  endfacet
  facet normal -2.22045e-16 1.22461e-16 1
    outer loop
      vertex 0 4 11.5
      vertex 0 0 11.5
      vertex 3.35 0 11.5
    endloop
  endfacet
  facet normal 0 0 1
    outer loop
      vertex 0 0 11.5
      vertex 0 -18 11.5
      vertex 0.380602 -19.9134 11.5
    endloop
  endfacet
  facet normal 0 0 1
    outer loop
      vertex 3.08658 -22.6194 11.5
      vertex 0 0 11.5
      vertex 1.46447 -21.5355 11.5
    endloop
  endfacet
  facet normal 0 0 1
    outer loop
      vertex 1.46447 -21.5355 11.5
      vertex 0 0 11.5
      vertex 0.380602 -19.9134 11.5
    endloop
  endfacet
  facet normal 0 0 1
    outer loop
      vertex 3.35 -18 11.5
      vertex 0 0 11.5
      vertex 3.08658 -22.6194 11.5
    endloop
  endfacet
  facet normal 0 0 1
    outer loop
      vertex 3.35 -18 11.5
      vertex 4.175 -16.5711 11.5
      vertex 0 0 11.5
    endloop
  endfacet
  facet normal 0 0 1
    outer loop
      vertex 9.6194 -19.9134 11.5
      vertex 0 0 11.5
      vertex 8.53553 -21.5355 11.5
    endloop
  endfacet
  facet normal 0 0 1
    outer loop
      vertex 10 -18 11.5
      vertex 0 0 11.5
      vertex 9.6194 -19.9134 11.5
    endloop
  endfacet
  facet normal 0 0 1
    outer loop
      vertex 4.175 -1.42894 11.5
      vertex 0 0 11.5
      vertex 10 -18 11.5
    endloop
  endfacet
  facet normal 0 0 1
    outer loop
      vertex 10 0 11.5
      vertex 6.65 0 11.5
      vertex 10 -18 11.5
    endloop
  endfacet
  facet normal 0 0 1
    outer loop
      vertex 6.65 0 11.5
      vertex 5.825 -1.42894 11.5
      vertex 10 -18 11.5
    endloop
  endfacet
  facet normal 0 0 1
    outer loop
      vertex 5.825 -1.42894 11.5
      vertex 4.175 -1.42894 11.5
      vertex 10 -18 11.5
    endloop
  endfacet
  facet normal 0 0 1
    outer loop
      vertex 5 -23 11.5
      vertex 4.175 -19.4289 11.5
      vertex 3.08658 -22.6194 11.5
    endloop
  endfacet
  facet normal 0 0 1
    outer loop
      vertex 4.175 -19.4289 11.5
      vertex 3.35 -18 11.5
      vertex 3.08658 -22.6194 11.5
    endloop
  endfacet
  facet normal 0 0 1
    outer loop
      vertex 4.175 -16.5711 11.5
      vertex 5.825 -16.5711 11.5
      vertex 0 0 11.5
    endloop
  endfacet
  facet normal 0 0 1
    outer loop
      vertex 6.65 -18 11.5
      vertex 5.825 -19.4289 11.5
      vertex 6.91342 -22.6194 11.5
    endloop
  endfacet
  facet normal 0 0 1
    outer loop
      vertex 6.65 -18 11.5
      vertex 0 0 11.5
      vertex 5.825 -16.5711 11.5
    endloop
  endfacet
  facet normal 0 0 1
    outer loop
      vertex 8.53553 -21.5355 11.5
      vertex 0 0 11.5
      vertex 6.65 -18 11.5
    endloop
  endfacet
  facet normal 0 0 1
    outer loop
      vertex 6.65 -18 11.5
      vertex 6.91342 -22.6194 11.5
      vertex 8.53553 -21.5355 11.5
    endloop
  endfacet
  facet normal 0 0 1
    outer loop
      vertex 4.175 -1.42894 11.5
      vertex 3.35 0 11.5
      vertex 0 0 11.5
    endloop
  endfacet
  facet normal 0 0 1
    outer loop
      vertex 5.825 -19.4289 11.5
      vertex 5 -23 11.5
      vertex 6.91342 -22.6194 11.5
    endloop
  endfacet
  facet normal 0 0 1
    outer loop
      vertex 5.825 -19.4289 11.5
      vertex 4.175 -19.4289 11.5
      vertex 5 -23 11.5
    endloop
  endfacet
  facet normal -0.83147 -0.55557 0
    outer loop
      vertex 0.380602 -19.9134 0
      vertex 1.46447 -21.5355 0
      vertex 0.380602 -19.9134 11.5
    endloop
  endfacet
  facet normal -0.83147 -0.55557 0
    outer loop
      vertex 0.380602 -19.9134 11.5
      vertex 1.46447 -21.5355 0
      vertex 1.46447 -21.5355 11.5
    endloop
  endfacet
  facet normal -0.55557 -0.83147 0
    outer loop
      vertex 1.46447 -21.5355 11.5
      vertex 1.46447 -21.5355 0
      vertex 3.08658 -22.6194 0
    endloop
  endfacet
  facet normal -0.55557 -0.83147 0
    outer loop
      vertex 3.08658 -22.6194 11.5
      vertex 1.46447 -21.5355 11.5
      vertex 3.08658 -22.6194 0
    endloop
  endfacet
  facet normal -0.19509 -0.980785 0
    outer loop
      vertex 3.08658 -22.6194 11.5
      vertex 3.08658 -22.6194 0
      vertex 5 -23 0
    endloop
  endfacet
  facet normal -0.19509 -0.980785 0
    outer loop
      vertex 5 -23 11.5
      vertex 3.08658 -22.6194 11.5
      vertex 5 -23 0
    endloop
  endfacet
  facet normal 0.19509 -0.980785 0
    outer loop
      vertex 5 -23 11.5
      vertex 5 -23 0
      vertex 6.91342 -22.6194 0
    endloop
  endfacet
  facet normal 0.19509 -0.980785 0
    outer loop
      vertex 6.91342 -22.6194 11.5
      vertex 5 -23 11.5
      vertex 6.91342 -22.6194 0
    endloop
  endfacet
  facet normal 0.55557 -0.83147 0
    outer loop
      vertex 6.91342 -22.6194 11.5
      vertex 6.91342 -22.6194 0
      vertex 7.84041 -22 0
    endloop
  endfacet
  facet normal 0.55557 -0.83147 0
    outer loop
      vertex 7.95064 -21.9263 2
      vertex 6.91342 -22.6194 11.5
      vertex 7.84041 -22 2
    endloop
  endfacet
  facet normal 0.55557 -0.83147 0
    outer loop
      vertex 7.84041 -22 2
      vertex 6.91342 -22.6194 11.5
      vertex 7.84041 -22 0
    endloop
  endfacet
  facet normal 0.55557 -0.83147 0
    outer loop
      vertex 8.53553 -21.5355 0
      vertex 6.91342 -22.6194 11.5
      vertex 7.95064 -21.9263 2
    endloop
  endfacet
  facet normal 0.55557 -0.83147 0
    outer loop
      vertex 8.53553 -21.5355 0
      vertex 7.95064 -21.9263 2
      vertex 7.95064 -21.9263 0
    endloop
  endfacet
  facet normal 0.55557 -0.83147 0
    outer loop
      vertex 8.53553 -21.5355 11.5
      vertex 6.91342 -22.6194 11.5
      vertex 8.53553 -21.5355 0
    endloop
  endfacet
  facet normal 0 -1 0
    outer loop
      vertex 7.84041 -22 2
      vertex 7.84041 -22 0
      vertex 7.88432 -22 0
    endloop
  endfacet
  facet normal 0 -1 0
    outer loop
      vertex 7.88432 -22 2
      vertex 7.84041 -22 2
      vertex 7.88432 -22 0
    endloop
  endfacet
  facet normal 0.743145 -0.669131 0
    outer loop
      vertex 7.95064 -21.9263 0
      vertex 7.95064 -21.9263 2
      vertex 7.88432 -22 2
    endloop
  endfacet
  facet normal 0.743145 -0.669131 0
    outer loop
      vertex 7.88432 -22 0
      vertex 7.95064 -21.9263 0
      vertex 7.88432 -22 2
    endloop
  endfacet
  facet normal 0.83147 -0.55557 0
    outer loop
      vertex 8.53553 -21.5355 11.5
      vertex 8.53553 -21.5355 0
      vertex 9.20595 -20.5322 0
    endloop
  endfacet
  facet normal 0.83147 -0.55557 0
    outer loop
      vertex 9.6194 -19.9134 2
      vertex 8.53553 -21.5355 11.5
      vertex 9.20595 -20.5322 2
    endloop
  endfacet
  facet normal 0.83147 -0.55557 0
    outer loop
      vertex 9.20595 -20.5322 2
      vertex 8.53553 -21.5355 11.5
      vertex 9.20595 -20.5322 0
    endloop
  endfacet
  facet normal 0.83147 -0.55557 0
    outer loop
      vertex 9.6194 -19.9134 11.5
      vertex 8.53553 -21.5355 11.5
      vertex 9.6194 -19.9134 2
    endloop
  endfacet
  facet normal 0.743145 -0.669131 0
    outer loop
      vertex 11.1572 -18.3651 0
      vertex 11.1572 -18.3651 2
      vertex 9.20595 -20.5322 2
    endloop
  endfacet
  facet normal 0.743145 -0.669131 0
    outer loop
      vertex 9.20595 -20.5322 0
      vertex 11.1572 -18.3651 0
      vertex 9.20595 -20.5322 2
    endloop
  endfacet
  facet normal 0.587785 -0.809017 0
    outer loop
      vertex 23.25 -9.57918 0
      vertex 23.25 -9.57918 2
      vertex 11.1572 -18.3651 2
    endloop
  endfacet
  facet normal 0.587785 -0.809017 0
    outer loop
      vertex 11.1572 -18.3651 0
      vertex 23.25 -9.57918 0
      vertex 11.1572 -18.3651 2
    endloop
  endfacet
  facet normal 0.406737 -0.913545 0
    outer loop
      vertex 36.9053 -3.49946 0
      vertex 36.9053 -3.49946 2
      vertex 23.25 -9.57918 2
    endloop
  endfacet
  facet normal 0.406737 -0.913545 0
    outer loop
      vertex 23.25 -9.57918 0
      vertex 36.9053 -3.49946 0
      vertex 23.25 -9.57918 2
    endloop
  endfacet
  facet normal 0.207912 -0.978148 0
    outer loop
      vertex 51.5262 -0.391684 0
      vertex 51.5262 -0.391684 2
      vertex 36.9053 -3.49946 2
    endloop
  endfacet
  facet normal 0.207912 -0.978148 0
    outer loop
      vertex 36.9053 -3.49946 0
      vertex 51.5262 -0.391684 0
      vertex 36.9053 -3.49946 2
    endloop
  endfacet
  facet normal 0 -1 0
    outer loop
      vertex 66.4738 -0.391684 0
      vertex 66.4738 -0.391684 2
      vertex 51.5262 -0.391684 2
    endloop
  endfacet
  facet normal 0 -1 0
    outer loop
      vertex 51.5262 -0.391684 0
      vertex 66.4738 -0.391684 0
      vertex 51.5262 -0.391684 2
    endloop
  endfacet
  facet normal -0.207912 -0.978148 0
    outer loop
      vertex 81.0947 -3.49946 0
      vertex 81.0947 -3.49946 2
      vertex 66.4738 -0.391684 2
    endloop
  endfacet
  facet normal -0.207912 -0.978148 0
    outer loop
      vertex 66.4738 -0.391684 0
      vertex 81.0947 -3.49946 0
      vertex 66.4738 -0.391684 2
    endloop
  endfacet
  facet normal -0.406737 -0.913545 0
    outer loop
      vertex 94.75 -9.57918 0
      vertex 94.75 -9.57918 2
      vertex 81.0947 -3.49946 2
    endloop
  endfacet
  facet normal -0.406737 -0.913545 0
    outer loop
      vertex 81.0947 -3.49946 0
      vertex 94.75 -9.57918 0
      vertex 81.0947 -3.49946 2
    endloop
  endfacet
  facet normal -0.587785 -0.809017 0
    outer loop
      vertex 106.843 -18.3651 0
      vertex 106.843 -18.3651 2
      vertex 94.75 -9.57918 2
    endloop
  endfacet
  facet normal -0.587785 -0.809017 0
    outer loop
      vertex 94.75 -9.57918 0
      vertex 106.843 -18.3651 0
      vertex 94.75 -9.57918 2
    endloop
  endfacet
  facet normal -0.743145 -0.669131 0
    outer loop
      vertex 108.794 -20.5322 2
      vertex 106.843 -18.3651 2
      vertex 108.794 -20.5322 0
    endloop
  endfacet
  facet normal -0.743145 -0.669131 0
    outer loop
      vertex 108.794 -20.5322 0
      vertex 106.843 -18.3651 2
      vertex 106.843 -18.3651 0
    endloop
  endfacet
  facet normal -0.83147 -0.55557 0
    outer loop
      vertex 108.381 -19.9134 2
      vertex 108.794 -20.5322 2
      vertex 108.381 -19.9134 11.5
    endloop
  endfacet
  facet normal -0.83147 -0.55557 0
    outer loop
      vertex 109.464 -21.5355 0
      vertex 108.794 -20.5322 2
      vertex 108.794 -20.5322 0
    endloop
  endfacet
  facet normal -0.83147 -0.55557 0
    outer loop
      vertex 108.381 -19.9134 11.5
      vertex 108.794 -20.5322 2
      vertex 109.464 -21.5355 0
    endloop
  endfacet
  facet normal -0.83147 -0.55557 0
    outer loop
      vertex 108.381 -19.9134 11.5
      vertex 109.464 -21.5355 0
      vertex 109.464 -21.5355 11.5
    endloop
  endfacet
  facet normal -0.55557 -0.83147 0
    outer loop
      vertex 109.464 -21.5355 11.5
      vertex 109.464 -21.5355 0
      vertex 110.049 -21.9263 0
    endloop
  endfacet
  facet normal -0.55557 -0.83147 0
    outer loop
      vertex 110.16 -22 2
      vertex 109.464 -21.5355 11.5
      vertex 110.049 -21.9263 2
    endloop
  endfacet
  facet normal -0.55557 -0.83147 0
    outer loop
      vertex 110.049 -21.9263 2
      vertex 109.464 -21.5355 11.5
      vertex 110.049 -21.9263 0
    endloop
  endfacet
  facet normal -0.55557 -0.83147 0
    outer loop
      vertex 111.087 -22.6194 0
      vertex 109.464 -21.5355 11.5
      vertex 110.16 -22 2
    endloop
  endfacet
  facet normal -0.55557 -0.83147 0
    outer loop
      vertex 111.087 -22.6194 0
      vertex 110.16 -22 2
      vertex 110.16 -22 0
    endloop
  endfacet
  facet normal -0.55557 -0.83147 0
    outer loop
      vertex 111.087 -22.6194 11.5
      vertex 109.464 -21.5355 11.5
      vertex 111.087 -22.6194 0
    endloop
  endfacet
  facet normal -0.743145 -0.669131 0
    outer loop
      vertex 110.116 -22 2
      vertex 110.049 -21.9263 2
      vertex 110.116 -22 0
    endloop
  endfacet
  facet normal -0.743145 -0.669131 0
    outer loop
      vertex 110.116 -22 0
      vertex 110.049 -21.9263 2
      vertex 110.049 -21.9263 0
    endloop
  endfacet
  facet normal 0 -1 0
    outer loop
      vertex 110.116 -22 2
      vertex 110.116 -22 0
      vertex 110.16 -22 0
    endloop
  endfacet
  facet normal 0 -1 0
    outer loop
      vertex 110.16 -22 2
      vertex 110.116 -22 2
      vertex 110.16 -22 0
    endloop
  endfacet
  facet normal -0.19509 -0.980785 0
    outer loop
      vertex 111.087 -22.6194 11.5
      vertex 111.087 -22.6194 0
      vertex 113 -23 0
    endloop
  endfacet
  facet normal -0.19509 -0.980785 0
    outer loop
      vertex 113 -23 11.5
      vertex 111.087 -22.6194 11.5
      vertex 113 -23 0
    endloop
  endfacet
  facet normal 0.19509 -0.980785 0
    outer loop
      vertex 113 -23 11.5
      vertex 113 -23 0
      vertex 114.913 -22.6194 0
    endloop
  endfacet
  facet normal 0.19509 -0.980785 0
    outer loop
      vertex 114.913 -22.6194 11.5
      vertex 113 -23 11.5
      vertex 114.913 -22.6194 0
    endloop
  endfacet
  facet normal 0.55557 -0.83147 0
    outer loop
      vertex 114.913 -22.6194 11.5
      vertex 114.913 -22.6194 0
      vertex 116.536 -21.5355 0
    endloop
  endfacet
  facet normal 0.55557 -0.83147 0
    outer loop
      vertex 116.536 -21.5355 11.5
      vertex 114.913 -22.6194 11.5
      vertex 116.536 -21.5355 0
    endloop
  endfacet
  facet normal 0.83147 -0.55557 0
    outer loop
      vertex 116.536 -21.5355 11.5
      vertex 116.536 -21.5355 0
      vertex 117.619 -19.9134 0
    endloop
  endfacet
  facet normal 0.83147 -0.55557 0
    outer loop
      vertex 117.619 -19.9134 11.5
      vertex 116.536 -21.5355 11.5
      vertex 117.619 -19.9134 0
    endloop
  endfacet
  facet normal 0.980785 -0.19509 0
    outer loop
      vertex 117.619 -19.9134 11.5
      vertex 117.619 -19.9134 0
      vertex 118 -18 0
    endloop
  endfacet
  facet normal 0.980785 -0.19509 0
    outer loop
      vertex 118 -18 11.5
      vertex 117.619 -19.9134 11.5
      vertex 118 -18 0
    endloop
  endfacet
  facet normal 1 0 0
    outer loop
      vertex 118 -18 11.5
      vertex 118 -18 0
      vertex 118 15.4077 0
    endloop
  endfacet
  facet normal 1 0 0
    outer loop
      vertex 118 9.55886 4.25556
      vertex 118 -18 11.5
      vertex 118 15.4077 0
    endloop
  endfacet
  facet normal 1 0 0
    outer loop
      vertex 118 15.4077 5.12581
      vertex 118 15.25 5.00481
      vertex 118 15.4077 0
    endloop
  endfacet
  facet normal 1 0 0
    outer loop
      vertex 118 15.25 5.00481
      vertex 118 13.4411 4.25556
      vertex 118 15.4077 0
    endloop
  endfacet
  facet normal 1 0 0
    outer loop
      vertex 118 13.4411 4.25556
      vertex 118 11.5 4
      vertex 118 15.4077 0
    endloop
  endfacet
  facet normal 1 0 0
    outer loop
      vertex 118 11.5 4
      vertex 118 9.55886 4.25556
      vertex 118 15.4077 0
    endloop
  endfacet
  facet normal 1 0 0
    outer loop
      vertex 118 7.75 5.00481
      vertex 118 6.1967 6.1967
      vertex 118 -18 11.5
    endloop
  endfacet
  facet normal 1 0 0
    outer loop
      vertex 118 4.25556 9.55886
      vertex 118 -18 11.5
      vertex 118 5.00481 7.75
    endloop
  endfacet
  facet normal 1 0 0
    outer loop
      vertex 118 0 11.5
      vertex 118 -18 11.5
      vertex 118 4.25556 9.55886
    endloop
  endfacet
  facet normal 1 0 0
    outer loop
      vertex 118 4 11.5
      vertex 118 0 11.5
      vertex 118 4.25556 9.55886
    endloop
  endfacet
  facet normal 1 0 0
    outer loop
      vertex 118 9.55886 4.25556
      vertex 118 7.75 5.00481
      vertex 118 -18 11.5
    endloop
  endfacet
  facet normal 1 0 0
    outer loop
      vertex 118 6.1967 6.1967
      vertex 118 5.00481 7.75
      vertex 118 -18 11.5
    endloop
  endfacet
  facet normal 0.866025 0.5 0
    outer loop
      vertex 110.73 28 19
      vertex 117.369 16.5 19
      vertex 117.369 16.5 17.1066
    endloop
  endfacet
  facet normal 0.866025 0.5 0
    outer loop
      vertex 117.194 16.8033 16.8033
      vertex 110.73 28 19
      vertex 117.369 16.5 17.1066
    endloop
  endfacet
  facet normal 0.866025 0.5 0
    outer loop
      vertex 116.506 17.9952 15.25
      vertex 110.73 28 19
      vertex 117.194 16.8033 16.8033
    endloop
  endfacet
  facet normal 0.866025 0.5 0
    outer loop
      vertex 116.074 18.7444 13.4411
      vertex 110.73 28 19
      vertex 116.506 17.9952 15.25
    endloop
  endfacet
  facet normal 0.866025 0.5 0
    outer loop
      vertex 115.926 19 11.5
      vertex 110.73 28 19
      vertex 116.074 18.7444 13.4411
    endloop
  endfacet
  facet normal 0.866025 0.5 0
    outer loop
      vertex 116.074 18.7444 9.55886
      vertex 110.73 28 19
      vertex 115.926 19 11.5
    endloop
  endfacet
  facet normal 0.866025 0.5 0
    outer loop
      vertex 116.506 17.9952 7.75
      vertex 110.73 28 19
      vertex 116.074 18.7444 9.55886
    endloop
  endfacet
  facet normal 0.866025 0.5 0
    outer loop
      vertex 117.194 16.8033 6.1967
      vertex 110.73 28 19
      vertex 116.506 17.9952 7.75
    endloop
  endfacet
  facet normal 0.866025 0.5 0
    outer loop
      vertex 117.947 15.5 5
      vertex 117.947 15.5 0
      vertex 117.194 16.8033 6.1967
    endloop
  endfacet
  facet normal 0.866025 0.5 0
    outer loop
      vertex 118 15.4077 5
      vertex 117.194 16.8033 6.1967
      vertex 118 15.4077 5.12581
    endloop
  endfacet
  facet normal 0.866025 0.5 0
    outer loop
      vertex 118 15.4077 0
      vertex 118 15.4077 5
      vertex 118 15.4077 5.12581
    endloop
  endfacet
  facet normal 0.866025 0.5 0
    outer loop
      vertex 117.947 15.5 5
      vertex 117.194 16.8033 6.1967
      vertex 118 15.4077 5
    endloop
  endfacet
  facet normal 0.866025 0.5 0
    outer loop
      vertex 117.194 16.8033 6.1967
      vertex 117.947 15.5 0
      vertex 110.73 28 19
    endloop
  endfacet
  facet normal 0.866025 0.5 0
    outer loop
      vertex 110.73 28 0
      vertex 110.73 28 19
      vertex 117.947 15.5 0
    endloop
  endfacet
  facet normal 1 0 0
    outer loop
      vertex 118 15.4077 5
      vertex 118 15.4077 0
      vertex 118 15.5 0
    endloop
  endfacet
  facet normal 1 0 0
    outer loop
      vertex 118 15.5 5
      vertex 118 15.4077 5
      vertex 118 15.5 0
    endloop
  endfacet
  facet normal 0 1 0
    outer loop
      vertex 117.947 15.5 0
      vertex 117.947 15.5 5
      vertex 118 15.5 0
    endloop
  endfacet
  facet normal 0 1 0
    outer loop
      vertex 118 15.5 0
      vertex 117.947 15.5 5
      vertex 118 15.5 5
    endloop
  endfacet
  facet normal 0 1 0
    outer loop
      vertex 97.2702 28 9.5
      vertex 110.73 28 0
      vertex 20.7298 28 9.5
    endloop
  endfacet
  facet normal 0 1 0
    outer loop
      vertex 7.27017 28 0
      vertex 7.27017 28 19
      vertex 20.7298 28 9.5
    endloop
  endfacet
  facet normal 0 1 0
    outer loop
      vertex 7.27017 28 0
      vertex 20.7298 28 9.5
      vertex 110.73 28 0
    endloop
  endfacet
  facet normal 0 1 0
    outer loop
      vertex 110.73 28 0
      vertex 97.2702 28 9.5
      vertex 97.2702 28 19
    endloop
  endfacet
  facet normal 0 1 0
    outer loop
      vertex 110.73 28 0
      vertex 97.2702 28 19
      vertex 110.73 28 19
    endloop
  endfacet
  facet normal 0 1 0
    outer loop
      vertex 20.7298 28 9.5
      vertex 7.27017 28 19
      vertex 20.7298 28 19
    endloop
  endfacet
  facet normal 0 1 0
    outer loop
      vertex 1.11022e-16 15.5 0
      vertex 1.11022e-16 15.5 5
      vertex 0.0532922 15.5 0
    endloop
  endfacet
  facet normal 0 1 0
    outer loop
      vertex 0.0532922 15.5 0
      vertex 1.11022e-16 15.5 5
      vertex 0.0532922 15.5 5
    endloop
  endfacet
  facet normal -1 0 0
    outer loop
      vertex 1.11022e-16 15.4077 0
      vertex 1.11022e-16 15.4077 5
      vertex 1.11022e-16 15.5 0
    endloop
  endfacet
  facet normal -1 0 0
    outer loop
      vertex 1.11022e-16 15.5 0
      vertex 1.11022e-16 15.4077 5
      vertex 1.11022e-16 15.5 5
    endloop
  endfacet
  facet normal 0.866025 -0.5 0
    outer loop
      vertex 4.175 -16.5711 0
      vertex 4.175 -16.5711 11.5
      vertex 3.35 -18 11.5
    endloop
  endfacet
  facet normal 0.866025 -0.5 0
    outer loop
      vertex 3.35 -18 0
      vertex 4.175 -16.5711 0
      vertex 3.35 -18 11.5
    endloop
  endfacet
  facet normal 0.866025 0.5 0
    outer loop
      vertex 3.35 -18 11.5
      vertex 4.175 -19.4289 11.5
      vertex 4.175 -19.4289 0
    endloop
  endfacet
  facet normal 0.866025 0.5 0
    outer loop
      vertex 3.35 -18 0
      vertex 3.35 -18 11.5
      vertex 4.175 -19.4289 0
    endloop
  endfacet
  facet normal 0 -1 0
    outer loop
      vertex 5.825 -16.5711 0
      vertex 5.825 -16.5711 11.5
      vertex 4.175 -16.5711 11.5
    endloop
  endfacet
  facet normal 0 -1 0
    outer loop
      vertex 4.175 -16.5711 0
      vertex 5.825 -16.5711 0
      vertex 4.175 -16.5711 11.5
    endloop
  endfacet
  facet normal -0.866025 -0.5 0
    outer loop
      vertex 6.65 -18 11.5
      vertex 5.825 -16.5711 11.5
      vertex 6.65 -18 0
    endloop
  endfacet
  facet normal -0.866025 -0.5 0
    outer loop
      vertex 6.65 -18 0
      vertex 5.825 -16.5711 11.5
      vertex 5.825 -16.5711 0
    endloop
  endfacet
  facet normal -0.866025 0.5 0
    outer loop
      vertex 6.65 -18 11.5
      vertex 6.65 -18 0
      vertex 5.825 -19.4289 11.5
    endloop
  endfacet
  facet normal -0.866025 0.5 0
    outer loop
      vertex 5.825 -19.4289 11.5
      vertex 6.65 -18 0
      vertex 5.825 -19.4289 0
    endloop
  endfacet
  facet normal 0 1 0
    outer loop
      vertex 5.825 -19.4289 11.5
      vertex 5.825 -19.4289 0
      vertex 4.175 -19.4289 11.5
    endloop
  endfacet
  facet normal 0 1 0
    outer loop
      vertex 4.175 -19.4289 11.5
      vertex 5.825 -19.4289 0
      vertex 4.175 -19.4289 0
    endloop
  endfacet
  facet normal 0.866025 -0.5 0
    outer loop
      vertex 4.175 1.42894 0
      vertex 4.175 1.42894 11.5
      vertex 3.35 0 11.5
    endloop
  endfacet
  facet normal 0.866025 -0.5 0
    outer loop
      vertex 3.35 0 0
      vertex 4.175 1.42894 0
      vertex 3.35 0 11.5
    endloop
  endfacet
  facet normal 0.866025 0.5 0
    outer loop
      vertex 3.35 0 11.5
      vertex 4.175 -1.42894 11.5
      vertex 4.175 -1.42894 0
    endloop
  endfacet
  facet normal 0.866025 0.5 0
    outer loop
      vertex 3.35 0 0
      vertex 3.35 0 11.5
      vertex 4.175 -1.42894 0
    endloop
  endfacet
  facet normal 0 -1 0
    outer loop
      vertex 5.825 1.42894 0
      vertex 5.825 1.42894 11.5
      vertex 4.175 1.42894 11.5
    endloop
  endfacet
  facet normal 0 -1 0
    outer loop
      vertex 4.175 1.42894 0
      vertex 5.825 1.42894 0
      vertex 4.175 1.42894 11.5
    endloop
  endfacet
  facet normal -0.866025 -0.5 0
    outer loop
      vertex 6.65 0 11.5
      vertex 5.825 1.42894 11.5
      vertex 6.65 0 0
    endloop
  endfacet
  facet normal -0.866025 -0.5 0
    outer loop
      vertex 6.65 0 0
      vertex 5.825 1.42894 11.5
      vertex 5.825 1.42894 0
    endloop
  endfacet
  facet normal -0.866025 0.5 0
    outer loop
      vertex 6.65 0 11.5
      vertex 6.65 0 0
      vertex 5.825 -1.42894 11.5
    endloop
  endfacet
  facet normal -0.866025 0.5 0
    outer loop
      vertex 5.825 -1.42894 11.5
      vertex 6.65 0 0
      vertex 5.825 -1.42894 0
    endloop
  endfacet
  facet normal 0 1 0
    outer loop
      vertex 5.825 -1.42894 11.5
      vertex 5.825 -1.42894 0
      vertex 4.175 -1.42894 11.5
    endloop
  endfacet
  facet normal 0 1 0
    outer loop
      vertex 4.175 -1.42894 11.5
      vertex 5.825 -1.42894 0
      vertex 4.175 -1.42894 0
    endloop
  endfacet
  facet normal 0.766044 -0.642788 0
    outer loop
      vertex 12.7 25.0517 0
      vertex 12.7 25.0517 19
      vertex 11.5568 23.6893 19
    endloop
  endfacet
  facet normal 0.766044 -0.642788 0
    outer loop
      vertex 11.5568 23.6893 0
      vertex 12.7 25.0517 0
      vertex 11.5568 23.6893 19
    endloop
  endfacet
  facet normal 1 0 0
    outer loop
      vertex 11.5568 23.6893 0
      vertex 11.5568 23.6893 19
      vertex 11.5568 21.9107 19
    endloop
  endfacet
  facet normal 1 0 0
    outer loop
      vertex 11.5568 21.9107 0
      vertex 11.5568 23.6893 0
      vertex 11.5568 21.9107 19
    endloop
  endfacet
  facet normal 0.173648 -0.984808 0
    outer loop
      vertex 14.4515 25.3605 0
      vertex 14.4515 25.3605 19
      vertex 12.7 25.0517 19
    endloop
  endfacet
  facet normal 0.173648 -0.984808 0
    outer loop
      vertex 12.7 25.0517 0
      vertex 14.4515 25.3605 0
      vertex 12.7 25.0517 19
    endloop
  endfacet
  facet normal -0.5 -0.866026 0
    outer loop
      vertex 15.9917 24.4712 0
      vertex 15.9917 24.4712 19
      vertex 14.4515 25.3605 19
    endloop
  endfacet
  facet normal -0.5 -0.866026 0
    outer loop
      vertex 14.4515 25.3605 0
      vertex 15.9917 24.4712 0
      vertex 14.4515 25.3605 19
    endloop
  endfacet
  facet normal -0.939693 -0.34202 0
    outer loop
      vertex 16.6 22.8 19
      vertex 15.9917 24.4712 19
      vertex 16.6 22.8 0
    endloop
  endfacet
  facet normal -0.939693 -0.34202 0
    outer loop
      vertex 16.6 22.8 0
      vertex 15.9917 24.4712 19
      vertex 15.9917 24.4712 0
    endloop
  endfacet
  facet normal -0.939693 0.34202 0
    outer loop
      vertex 16.6 22.8 19
      vertex 16.6 22.8 0
      vertex 15.9917 21.1288 19
    endloop
  endfacet
  facet normal -0.939693 0.34202 0
    outer loop
      vertex 15.9917 21.1288 19
      vertex 16.6 22.8 0
      vertex 15.9917 21.1288 0
    endloop
  endfacet
  facet normal -0.5 0.866026 0
    outer loop
      vertex 15.9917 21.1288 19
      vertex 15.9917 21.1288 0
      vertex 14.4515 20.2395 19
    endloop
  endfacet
  facet normal -0.5 0.866026 0
    outer loop
      vertex 14.4515 20.2395 19
      vertex 15.9917 21.1288 0
      vertex 14.4515 20.2395 0
    endloop
  endfacet
  facet normal 0.173648 0.984808 0
    outer loop
      vertex 14.4515 20.2395 19
      vertex 14.4515 20.2395 0
      vertex 12.7 20.5483 19
    endloop
  endfacet
  facet normal 0.173648 0.984808 0
    outer loop
      vertex 12.7 20.5483 19
      vertex 14.4515 20.2395 0
      vertex 12.7 20.5483 0
    endloop
  endfacet
  facet normal 0.766044 0.642788 0
    outer loop
      vertex 11.5568 21.9107 19
      vertex 12.7 20.5483 19
      vertex 12.7 20.5483 0
    endloop
  endfacet
  facet normal 0.766044 0.642788 0
    outer loop
      vertex 11.5568 21.9107 0
      vertex 11.5568 21.9107 19
      vertex 12.7 20.5483 0
    endloop
  endfacet
  facet normal 0.766044 -0.642788 0
    outer loop
      vertex 102.7 25.0517 0
      vertex 102.7 25.0517 19
      vertex 101.557 23.6893 19
    endloop
  endfacet
  facet normal 0.766044 -0.642788 0
    outer loop
      vertex 101.557 23.6893 0
      vertex 102.7 25.0517 0
      vertex 101.557 23.6893 19
    endloop
  endfacet
  facet normal 1 0 0
    outer loop
      vertex 101.557 23.6893 0
      vertex 101.557 23.6893 19
      vertex 101.557 21.9107 19
    endloop
  endfacet
  facet normal 1 0 0
    outer loop
      vertex 101.557 21.9107 0
      vertex 101.557 23.6893 0
      vertex 101.557 21.9107 19
    endloop
  endfacet
  facet normal 0.173648 -0.984808 0
    outer loop
      vertex 104.451 25.3605 0
      vertex 104.451 25.3605 19
      vertex 102.7 25.0517 19
    endloop
  endfacet
  facet normal 0.173648 -0.984808 0
    outer loop
      vertex 102.7 25.0517 0
      vertex 104.451 25.3605 0
      vertex 102.7 25.0517 19
    endloop
  endfacet
  facet normal -0.5 -0.866026 0
    outer loop
      vertex 105.992 24.4712 0
      vertex 105.992 24.4712 19
      vertex 104.451 25.3605 19
    endloop
  endfacet
  facet normal -0.5 -0.866026 0
    outer loop
      vertex 104.451 25.3605 0
      vertex 105.992 24.4712 0
      vertex 104.451 25.3605 19
    endloop
  endfacet
  facet normal -0.939693 -0.34202 0
    outer loop
      vertex 106.6 22.8 19
      vertex 105.992 24.4712 19
      vertex 106.6 22.8 0
    endloop
  endfacet
  facet normal -0.939693 -0.34202 0
    outer loop
      vertex 106.6 22.8 0
      vertex 105.992 24.4712 19
      vertex 105.992 24.4712 0
    endloop
  endfacet
  facet normal -0.939693 0.34202 0
    outer loop
      vertex 106.6 22.8 19
      vertex 106.6 22.8 0
      vertex 105.992 21.1288 19
    endloop
  endfacet
  facet normal -0.939693 0.34202 0
    outer loop
      vertex 105.992 21.1288 19
      vertex 106.6 22.8 0
      vertex 105.992 21.1288 0
    endloop
  endfacet
  facet normal -0.5 0.866026 0
    outer loop
      vertex 105.992 21.1288 19
      vertex 105.992 21.1288 0
      vertex 104.451 20.2395 19
    endloop
  endfacet
  facet normal -0.5 0.866026 0
    outer loop
      vertex 104.451 20.2395 19
      vertex 105.992 21.1288 0
      vertex 104.451 20.2395 0
    endloop
  endfacet
  facet normal 0.173648 0.984808 0
    outer loop
      vertex 104.451 20.2395 19
      vertex 104.451 20.2395 0
      vertex 102.7 20.5483 19
    endloop
  endfacet
  facet normal 0.173648 0.984808 0
    outer loop
      vertex 102.7 20.5483 19
      vertex 104.451 20.2395 0
      vertex 102.7 20.5483 0
    endloop
  endfacet
  facet normal 0.766044 0.642788 0
    outer loop
      vertex 101.557 21.9107 19
      vertex 102.7 20.5483 19
      vertex 102.7 20.5483 0
    endloop
  endfacet
  facet normal 0.766044 0.642788 0
    outer loop
      vertex 101.557 21.9107 0
      vertex 101.557 21.9107 19
      vertex 102.7 20.5483 0
    endloop
  endfacet
  facet normal 0.866025 -0.5 0
    outer loop
      vertex 112.175 -16.5711 0
      vertex 112.175 -16.5711 11.5
      vertex 111.35 -18 11.5
    endloop
  endfacet
  facet normal 0.866025 -0.5 0
    outer loop
      vertex 111.35 -18 0
      vertex 112.175 -16.5711 0
      vertex 111.35 -18 11.5
    endloop
  endfacet
  facet normal 0.866025 0.5 0
    outer loop
      vertex 111.35 -18 11.5
      vertex 112.175 -19.4289 11.5
      vertex 112.175 -19.4289 0
    endloop
  endfacet
  facet normal 0.866025 0.5 0
    outer loop
      vertex 111.35 -18 0
      vertex 111.35 -18 11.5
      vertex 112.175 -19.4289 0
    endloop
  endfacet
  facet normal 0 -1 0
    outer loop
      vertex 113.825 -16.5711 0
      vertex 113.825 -16.5711 11.5
      vertex 112.175 -16.5711 11.5
    endloop
  endfacet
  facet normal 0 -1 0
    outer loop
      vertex 112.175 -16.5711 0
      vertex 113.825 -16.5711 0
      vertex 112.175 -16.5711 11.5
    endloop
  endfacet
  facet normal -0.866025 -0.5 0
    outer loop
      vertex 114.65 -18 11.5
      vertex 113.825 -16.5711 11.5
      vertex 114.65 -18 0
    endloop
  endfacet
  facet normal -0.866025 -0.5 0
    outer loop
      vertex 114.65 -18 0
      vertex 113.825 -16.5711 11.5
      vertex 113.825 -16.5711 0
    endloop
  endfacet
  facet normal -0.866025 0.5 0
    outer loop
      vertex 114.65 -18 11.5
      vertex 114.65 -18 0
      vertex 113.825 -19.4289 11.5
    endloop
  endfacet
  facet normal -0.866025 0.5 0
    outer loop
      vertex 113.825 -19.4289 11.5
      vertex 114.65 -18 0
      vertex 113.825 -19.4289 0
    endloop
  endfacet
  facet normal 0 1 0
    outer loop
      vertex 113.825 -19.4289 11.5
      vertex 113.825 -19.4289 0
      vertex 112.175 -19.4289 11.5
    endloop
  endfacet
  facet normal 0 1 0
    outer loop
      vertex 112.175 -19.4289 11.5
      vertex 113.825 -19.4289 0
      vertex 112.175 -19.4289 0
    endloop
  endfacet
  facet normal 0.866025 -0.5 0
    outer loop
      vertex 112.175 1.42894 0
      vertex 112.175 1.42894 11.5
      vertex 111.35 0 11.5
    endloop
  endfacet
  facet normal 0.866025 -0.5 0
    outer loop
      vertex 111.35 0 0
      vertex 112.175 1.42894 0
      vertex 111.35 0 11.5
    endloop
  endfacet
  facet normal 0.866025 0.5 0
    outer loop
      vertex 111.35 0 11.5
      vertex 112.175 -1.42894 11.5
      vertex 112.175 -1.42894 0
    endloop
  endfacet
  facet normal 0.866025 0.5 0
    outer loop
      vertex 111.35 0 0
      vertex 111.35 0 11.5
      vertex 112.175 -1.42894 0
    endloop
  endfacet
  facet normal 0 -1 0
    outer loop
      vertex 113.825 1.42894 0
      vertex 113.825 1.42894 11.5
      vertex 112.175 1.42894 11.5
    endloop
  endfacet
  facet normal 0 -1 0
    outer loop
      vertex 112.175 1.42894 0
      vertex 113.825 1.42894 0
      vertex 112.175 1.42894 11.5
    endloop
  endfacet
  facet normal -0.866025 -0.5 0
    outer loop
      vertex 114.65 0 11.5
      vertex 113.825 1.42894 11.5
      vertex 114.65 0 0
    endloop
  endfacet
  facet normal -0.866025 -0.5 0
    outer loop
      vertex 114.65 0 0
      vertex 113.825 1.42894 11.5
      vertex 113.825 1.42894 0
    endloop
  endfacet
  facet normal -0.866025 0.5 0
    outer loop
      vertex 114.65 0 11.5
      vertex 114.65 0 0
      vertex 113.825 -1.42894 11.5
    endloop
  endfacet
  facet normal -0.866025 0.5 0
    outer loop
      vertex 113.825 -1.42894 11.5
      vertex 114.65 0 0
      vertex 113.825 -1.42894 0
    endloop
  endfacet
  facet normal 0 1 0
    outer loop
      vertex 113.825 -1.42894 11.5
      vertex 113.825 -1.42894 0
      vertex 112.175 -1.42894 11.5
    endloop
  endfacet
  facet normal 0 1 0
    outer loop
      vertex 112.175 -1.42894 11.5
      vertex 113.825 -1.42894 0
      vertex 112.175 -1.42894 0
    endloop
  endfacet
  facet normal 0 0 1
    outer loop
      vertex 1.11022e-16 15.5 5
      vertex 1.11022e-16 15.4077 5
      vertex 0.0532922 15.5 5
    endloop
  endfacet
  facet normal 0 0 1
    outer loop
      vertex 14.4515 20.2395 19
      vertex 0.630642 16.5 19
      vertex 27.3694 16.5 19
    endloop
  endfacet
  facet normal 0 0 1
    outer loop
      vertex 7.27017 28 19
      vertex 0.630642 16.5 19
      vertex 11.5568 21.9107 19
    endloop
  endfacet
  facet normal 0 0 1
    outer loop
      vertex 15.9917 24.4712 19
      vertex 16.6 22.8 19
      vertex 27.3694 16.5 19
    endloop
  endfacet
  facet normal 0 0 1
    outer loop
      vertex 7.27017 28 19
      vertex 11.5568 21.9107 19
      vertex 11.5568 23.6893 19
    endloop
  endfacet
  facet normal 0 0 1
    outer loop
      vertex 20.7298 28 19
      vertex 7.27017 28 19
      vertex 12.7 25.0517 19
    endloop
  endfacet
  facet normal 0 0 1
    outer loop
      vertex 20.7298 28 19
      vertex 12.7 25.0517 19
      vertex 14.4515 25.3605 19
    endloop
  endfacet
  facet normal 0 0 1
    outer loop
      vertex 20.7298 28 19
      vertex 15.9917 24.4712 19
      vertex 27.3694 16.5 19
    endloop
  endfacet
  facet normal 0 0 1
    outer loop
      vertex 20.7298 28 19
      vertex 14.4515 25.3605 19
      vertex 15.9917 24.4712 19
    endloop
  endfacet
  facet normal 0 0 1
    outer loop
      vertex 12.7 20.5483 19
      vertex 0.630642 16.5 19
      vertex 14.4515 20.2395 19
    endloop
  endfacet
  facet normal 0 0 1
    outer loop
      vertex 11.5568 21.9107 19
      vertex 0.630642 16.5 19
      vertex 12.7 20.5483 19
    endloop
  endfacet
  facet normal 0 0 1
    outer loop
      vertex 15.9917 21.1288 19
      vertex 14.4515 20.2395 19
      vertex 27.3694 16.5 19
    endloop
  endfacet
  facet normal 0 0 1
    outer loop
      vertex 11.5568 23.6893 19
      vertex 12.7 25.0517 19
      vertex 7.27017 28 19
    endloop
  endfacet
  facet normal 0 0 1
    outer loop
      vertex 16.6 22.8 19
      vertex 15.9917 21.1288 19
      vertex 27.3694 16.5 19
    endloop
  endfacet
  facet normal -2.71917e-32 -1 1.22461e-16
    outer loop
      vertex 27.3694 16.5 17.1066
      vertex 27.3694 16.5 19
      vertex 0.630642 16.5 19
    endloop
  endfacet
  facet normal -2.71917e-32 -1 1.22461e-16
    outer loop
      vertex 0.630642 16.5 17.1066
      vertex 27.3694 16.5 17.1066
      vertex 0.630642 16.5 19
    endloop
  endfacet
  facet normal 1.57009e-16 -0.707107 -0.707107
    outer loop
      vertex 0.805753 16.8033 16.8033
      vertex 27.1942 16.8033 16.8033
      vertex 27.3694 16.5 17.1066
    endloop
  endfacet
  facet normal 1.57009e-16 -0.707107 -0.707107
    outer loop
      vertex 0.630642 16.5 17.1066
      vertex 0.805753 16.8033 16.8033
      vertex 27.3694 16.5 17.1066
    endloop
  endfacet
  facet normal 1.35172e-16 -0.793353 -0.608762
    outer loop
      vertex 1.49389 17.9952 15.25
      vertex 26.5061 17.9952 15.25
      vertex 27.1942 16.8033 16.8033
    endloop
  endfacet
  facet normal 1.35172e-16 -0.793353 -0.608762
    outer loop
      vertex 0.805753 16.8033 16.8033
      vertex 1.49389 17.9952 15.25
      vertex 27.1942 16.8033 16.8033
    endloop
  endfacet
  facet normal 8.49728e-17 -0.92388 -0.382683
    outer loop
      vertex 1.92647 18.7444 13.4411
      vertex 26.0735 18.7444 13.4411
      vertex 26.5061 17.9952 15.25
    endloop
  endfacet
  facet normal 8.49728e-17 -0.92388 -0.382683
    outer loop
      vertex 1.49389 17.9952 15.25
      vertex 1.92647 18.7444 13.4411
      vertex 26.5061 17.9952 15.25
    endloop
  endfacet
  facet normal 2.89826e-17 -0.991445 -0.130526
    outer loop
      vertex 2.07402 19 11.5
      vertex 25.926 19 11.5
      vertex 26.0735 18.7444 13.4411
    endloop
  endfacet
  facet normal 2.89826e-17 -0.991445 -0.130526
    outer loop
      vertex 1.92647 18.7444 13.4411
      vertex 2.07402 19 11.5
      vertex 26.0735 18.7444 13.4411
    endloop
  endfacet
  facet normal -2.89826e-17 -0.991445 0.130526
    outer loop
      vertex 26.0735 18.7444 9.55886
      vertex 25.926 19 11.5
      vertex 2.07402 19 11.5
    endloop
  endfacet
  facet normal -2.89826e-17 -0.991445 0.130526
    outer loop
      vertex 1.92647 18.7444 9.55886
      vertex 26.0735 18.7444 9.55886
      vertex 2.07402 19 11.5
    endloop
  endfacet
  facet normal -8.49728e-17 -0.92388 0.382683
    outer loop
      vertex 26.5061 17.9952 7.75
      vertex 26.0735 18.7444 9.55886
      vertex 1.92647 18.7444 9.55886
    endloop
  endfacet
  facet normal -8.49728e-17 -0.92388 0.382683
    outer loop
      vertex 1.49389 17.9952 7.75
      vertex 26.5061 17.9952 7.75
      vertex 1.92647 18.7444 9.55886
    endloop
  endfacet
  facet normal -1.35172e-16 -0.793353 0.608762
    outer loop
      vertex 27.1942 16.8033 6.1967
      vertex 26.5061 17.9952 7.75
      vertex 1.49389 17.9952 7.75
    endloop
  endfacet
  facet normal -1.35172e-16 -0.793353 0.608762
    outer loop
      vertex 0.805753 16.8033 6.1967
      vertex 27.1942 16.8033 6.1967
      vertex 1.49389 17.9952 7.75
    endloop
  endfacet
  facet normal 1 0 0
    outer loop
      vertex 28 0 11.5
      vertex 28 0 9.5
      vertex 28 4.27994 9.5
    endloop
  endfacet
  facet normal 1 0 0
    outer loop
      vertex 28 4.25556 9.55886
      vertex 28 0 11.5
      vertex 28 4.27994 9.5
    endloop
  endfacet
  facet normal 1 0 0
    outer loop
      vertex 28 4.25556 9.55886
      vertex 28 4 11.5
      vertex 28 0 11.5
    endloop
  endfacet
  facet normal 1 0 0
    outer loop
      vertex 28 5.00481 7.75
      vertex 28 4.25556 9.55886
      vertex 28 4.27994 9.5
    endloop
  endfacet
  facet normal 0.866025 0.5 0
    outer loop
      vertex 20.7298 28 19
      vertex 27.3694 16.5 19
      vertex 27.3694 16.5 17.1066
    endloop
  endfacet
  facet normal 0.866025 0.5 0
    outer loop
      vertex 27.1942 16.8033 16.8033
      vertex 20.7298 28 19
      vertex 27.3694 16.5 17.1066
    endloop
  endfacet
  facet normal 0.866025 0.5 0
    outer loop
      vertex 26.5061 17.9952 15.25
      vertex 20.7298 28 19
      vertex 27.1942 16.8033 16.8033
    endloop
  endfacet
  facet normal 0.866025 0.5 0
    outer loop
      vertex 26.0735 18.7444 13.4411
      vertex 20.7298 28 19
      vertex 26.5061 17.9952 15.25
    endloop
  endfacet
  facet normal 0.866025 0.5 0
    outer loop
      vertex 25.926 19 11.5
      vertex 20.7298 28 19
      vertex 26.0735 18.7444 13.4411
    endloop
  endfacet
  facet normal 0.866025 0.5 0
    outer loop
      vertex 26.0735 18.7444 9.55886
      vertex 20.7298 28 19
      vertex 25.926 19 11.5
    endloop
  endfacet
  facet normal 0.866025 0.5 0
    outer loop
      vertex 26.0876 18.7201 9.5
      vertex 20.7298 28 19
      vertex 26.0735 18.7444 9.55886
    endloop
  endfacet
  facet normal 0.866025 0.5 0
    outer loop
      vertex 26.5061 17.9952 7.75
      vertex 26.0876 18.7201 9.5
      vertex 26.0735 18.7444 9.55886
    endloop
  endfacet
  facet normal 0.866025 0.5 0
    outer loop
      vertex 26.0876 18.7201 9.5
      vertex 20.7298 28 9.5
      vertex 20.7298 28 19
    endloop
  endfacet
  facet normal -1 0 0
    outer loop
      vertex 1.11022e-16 7.76161 5
      vertex 1.11022e-16 15.2384 5
      vertex 1.11022e-16 9.55886 4.25556
    endloop
  endfacet
  facet normal -1 0 0
    outer loop
      vertex 1.11022e-16 9.55886 4.25556
      vertex 1.11022e-16 15.2384 5
      vertex 1.11022e-16 13.4411 4.25556
    endloop
  endfacet
  facet normal -1 0 0
    outer loop
      vertex 1.11022e-16 9.55886 4.25556
      vertex 1.11022e-16 13.4411 4.25556
      vertex 1.11022e-16 11.5 4
    endloop
  endfacet
  facet normal 1 0 0
    outer loop
      vertex 28 15.2384 5
      vertex 28 7.76161 5
      vertex 28 9.55886 4.25556
    endloop
  endfacet
  facet normal 1 0 0
    outer loop
      vertex 28 13.4411 4.25556
      vertex 28 15.2384 5
      vertex 28 11.5 4
    endloop
  endfacet
  facet normal 1 0 0
    outer loop
      vertex 28 11.5 4
      vertex 28 15.2384 5
      vertex 28 9.55886 4.25556
    endloop
  endfacet
  facet normal 0 0 1
    outer loop
      vertex 26.4 15.2384 5
      vertex 26.4 7.76161 5
      vertex 28 7.76161 5
    endloop
  endfacet
  facet normal 0 0 1
    outer loop
      vertex 28 15.2384 5
      vertex 26.4 15.2384 5
      vertex 28 7.76161 5
    endloop
  endfacet
  facet normal -1 0 0
    outer loop
      vertex 26.4 7.76161 5
      vertex 26.4 15.2384 5
      vertex 26.4 9.55886 4.25556
    endloop
  endfacet
  facet normal -1 0 0
    outer loop
      vertex 26.4 9.55886 4.25556
      vertex 26.4 15.2384 5
      vertex 26.4 13.4411 4.25556
    endloop
  endfacet
  facet normal -1 0 0
    outer loop
      vertex 26.4 9.55886 4.25556
      vertex 26.4 13.4411 4.25556
      vertex 26.4 11.5 4
    endloop
  endfacet
  facet normal -2.20145e-16 -0.130526 0.991445
    outer loop
      vertex 26.4 11.5 4
      vertex 26.4 13.4411 4.25556
      vertex 1.6 13.4411 4.25556
    endloop
  endfacet
  facet normal -2.20145e-16 -0.130526 0.991445
    outer loop
      vertex 1.6 11.5 4
      vertex 26.4 11.5 4
      vertex 1.6 13.4411 4.25556
    endloop
  endfacet
  facet normal 1 0 0
    outer loop
      vertex 1.6 15.2384 5
      vertex 1.6 7.76161 5
      vertex 1.6 9.55886 4.25556
    endloop
  endfacet
  facet normal 1 0 0
    outer loop
      vertex 1.6 13.4411 4.25556
      vertex 1.6 15.2384 5
      vertex 1.6 11.5 4
    endloop
  endfacet
  facet normal 1 0 0
    outer loop
      vertex 1.6 11.5 4
      vertex 1.6 15.2384 5
      vertex 1.6 9.55886 4.25556
    endloop
  endfacet
  facet normal 0 0 1
    outer loop
      vertex 1.11022e-16 15.2384 5
      vertex 1.11022e-16 7.76161 5
      vertex 1.6 7.76161 5
    endloop
  endfacet
  facet normal 0 0 1
    outer loop
      vertex 1.6 15.2384 5
      vertex 1.11022e-16 15.2384 5
      vertex 1.6 7.76161 5
    endloop
  endfacet
  facet normal -2.20145e-16 0.130526 0.991445
    outer loop
      vertex 26.4 9.55886 4.25556
      vertex 26.4 11.5 4
      vertex 1.6 11.5 4
    endloop
  endfacet
  facet normal -2.20145e-16 0.130526 0.991445
    outer loop
      vertex 1.6 9.55886 4.25556
      vertex 26.4 9.55886 4.25556
      vertex 1.6 11.5 4
    endloop
  endfacet
  facet normal 0 -1 0
    outer loop
      vertex 90 0 9.5
      vertex 28 0 9.5
      vertex 108 0 2
    endloop
  endfacet
  facet normal 0 -1 0
    outer loop
      vertex 10 0 11.5
      vertex 28 0 11.5
      vertex 6.65 0 11.5
    endloop
  endfacet
  facet normal 0 -1 0
    outer loop
      vertex 108 0 2
      vertex 108 0 11.5
      vertex 90 0 9.5
    endloop
  endfacet
  facet normal 0 -1 0
    outer loop
      vertex 10 0 2
      vertex 28 0 9.5
      vertex 10 0 11.5
    endloop
  endfacet
  facet normal 0 -1 0
    outer loop
      vertex 10 0 2
      vertex 108 0 2
      vertex 28 0 9.5
    endloop
  endfacet
  facet normal 0 -1 0
    outer loop
      vertex 90 0 11.5
      vertex 108 0 11.5
      vertex 111.35 0 11.5
    endloop
  endfacet
  facet normal 0 -1 0
    outer loop
      vertex 90 0 11.5
      vertex 90 0 9.5
      vertex 108 0 11.5
    endloop
  endfacet
  facet normal 0 -1 0
    outer loop
      vertex 28 0 9.5
      vertex 28 0 11.5
      vertex 10 0 11.5
    endloop
  endfacet
  facet normal 1 0 0
    outer loop
      vertex 10 -18 11.5
      vertex 10 -18 2
      vertex 10 0 2
    endloop
  endfacet
  facet normal 1 0 0
    outer loop
      vertex 10 0 11.5
      vertex 10 -18 11.5
      vertex 10 0 2
    endloop
  endfacet
  facet normal 0.980785 -0.19509 0
    outer loop
      vertex 9.6194 -19.9134 11.5
      vertex 9.6194 -19.9134 2
      vertex 10 -18 2
    endloop
  endfacet
  facet normal 0.980785 -0.19509 0
    outer loop
      vertex 10 -18 11.5
      vertex 9.6194 -19.9134 11.5
      vertex 10 -18 2
    endloop
  endfacet
  facet normal 0 0 1
    outer loop
      vertex 7.95064 -21.9263 2
      vertex 7.84041 -22 2
      vertex 7.88432 -22 2
    endloop
  endfacet
  facet normal 0 0 1
    outer loop
      vertex 23.25 -9.57918 2
      vertex 10 0 2
      vertex 11.1572 -18.3651 2
    endloop
  endfacet
  facet normal 0 0 1
    outer loop
      vertex 9.6194 -19.9134 2
      vertex 9.20595 -20.5322 2
      vertex 11.1572 -18.3651 2
    endloop
  endfacet
  facet normal 0 0 1
    outer loop
      vertex 36.9053 -3.49946 2
      vertex 10 0 2
      vertex 23.25 -9.57918 2
    endloop
  endfacet
  facet normal 0 0 1
    outer loop
      vertex 10 -18 2
      vertex 9.6194 -19.9134 2
      vertex 11.1572 -18.3651 2
    endloop
  endfacet
  facet normal 0 0 1
    outer loop
      vertex 51.5262 -0.391684 2
      vertex 10 0 2
      vertex 36.9053 -3.49946 2
    endloop
  endfacet
  facet normal 0 0 1
    outer loop
      vertex 66.4738 -0.391684 2
      vertex 108 0 2
      vertex 51.5262 -0.391684 2
    endloop
  endfacet
  facet normal 0 0 1
    outer loop
      vertex 81.0947 -3.49946 2
      vertex 108 0 2
      vertex 66.4738 -0.391684 2
    endloop
  endfacet
  facet normal 0 0 1
    outer loop
      vertex 94.75 -9.57918 2
      vertex 108 0 2
      vertex 81.0947 -3.49946 2
    endloop
  endfacet
  facet normal 0 0 1
    outer loop
      vertex 106.843 -18.3651 2
      vertex 108 -18 2
      vertex 94.75 -9.57918 2
    endloop
  endfacet
  facet normal 0 0 1
    outer loop
      vertex 108.381 -19.9134 2
      vertex 108 -18 2
      vertex 106.843 -18.3651 2
    endloop
  endfacet
  facet normal 0 0 1
    outer loop
      vertex 108.794 -20.5322 2
      vertex 108.381 -19.9134 2
      vertex 106.843 -18.3651 2
    endloop
  endfacet
  facet normal 0 0 1
    outer loop
      vertex 108 -18 2
      vertex 108 0 2
      vertex 94.75 -9.57918 2
    endloop
  endfacet
  facet normal 0 0 1
    outer loop
      vertex 108 0 2
      vertex 10 0 2
      vertex 51.5262 -0.391684 2
    endloop
  endfacet
  facet normal 0 0 1
    outer loop
      vertex 10 0 2
      vertex 10 -18 2
      vertex 11.1572 -18.3651 2
    endloop
  endfacet
  facet normal 0 0 1
    outer loop
      vertex 108 0 11.5
      vertex 108 -18 11.5
      vertex 108.381 -19.9134 11.5
    endloop
  endfacet
  facet normal 0 0 1
    outer loop
      vertex 111.087 -22.6194 11.5
      vertex 108 0 11.5
      vertex 109.464 -21.5355 11.5
    endloop
  endfacet
  facet normal 0 0 1
    outer loop
      vertex 109.464 -21.5355 11.5
      vertex 108 0 11.5
      vertex 108.381 -19.9134 11.5
    endloop
  endfacet
  facet normal 0 0 1
    outer loop
      vertex 111.35 -18 11.5
      vertex 108 0 11.5
      vertex 111.087 -22.6194 11.5
    endloop
  endfacet
  facet normal 0 0 1
    outer loop
      vertex 111.35 -18 11.5
      vertex 112.175 -16.5711 11.5
      vertex 108 0 11.5
    endloop
  endfacet
  facet normal 0 0 1
    outer loop
      vertex 117.619 -19.9134 11.5
      vertex 108 0 11.5
      vertex 116.536 -21.5355 11.5
    endloop
  endfacet
  facet normal 0 0 1
    outer loop
      vertex 118 -18 11.5
      vertex 108 0 11.5
      vertex 117.619 -19.9134 11.5
    endloop
  endfacet
  facet normal 0 0 1
    outer loop
      vertex 112.175 -1.42894 11.5
      vertex 108 0 11.5
      vertex 118 -18 11.5
    endloop
  endfacet
  facet normal 0 0 1
    outer loop
      vertex 118 0 11.5
      vertex 114.65 0 11.5
      vertex 118 -18 11.5
    endloop
  endfacet
  facet normal 0 0 1
    outer loop
      vertex 114.65 0 11.5
      vertex 113.825 -1.42894 11.5
      vertex 118 -18 11.5
    endloop
  endfacet
  facet normal 0 0 1
    outer loop
      vertex 113.825 -1.42894 11.5
      vertex 112.175 -1.42894 11.5
      vertex 118 -18 11.5
    endloop
  endfacet
  facet normal 0 0 1
    outer loop
      vertex 113 -23 11.5
      vertex 112.175 -19.4289 11.5
      vertex 111.087 -22.6194 11.5
    endloop
  endfacet
  facet normal 0 0 1
    outer loop
      vertex 112.175 -19.4289 11.5
      vertex 111.35 -18 11.5
      vertex 111.087 -22.6194 11.5
    endloop
  endfacet
  facet normal 0 0 1
    outer loop
      vertex 112.175 -16.5711 11.5
      vertex 113.825 -16.5711 11.5
      vertex 108 0 11.5
    endloop
  endfacet
  facet normal 0 0 1
    outer loop
      vertex 114.65 -18 11.5
      vertex 113.825 -19.4289 11.5
      vertex 114.913 -22.6194 11.5
    endloop
  endfacet
  facet normal 0 0 1
    outer loop
      vertex 114.65 -18 11.5
      vertex 108 0 11.5
      vertex 113.825 -16.5711 11.5
    endloop
  endfacet
  facet normal 0 0 1
    outer loop
      vertex 116.536 -21.5355 11.5
      vertex 108 0 11.5
      vertex 114.65 -18 11.5
    endloop
  endfacet
  facet normal 0 0 1
    outer loop
      vertex 114.65 -18 11.5
      vertex 114.913 -22.6194 11.5
      vertex 116.536 -21.5355 11.5
    endloop
  endfacet
  facet normal 0 0 1
    outer loop
      vertex 112.175 -1.42894 11.5
      vertex 111.35 0 11.5
      vertex 108 0 11.5
    endloop
  endfacet
  facet normal 0 0 1
    outer loop
      vertex 113.825 -19.4289 11.5
      vertex 113 -23 11.5
      vertex 114.913 -22.6194 11.5
    endloop
  endfacet
  facet normal 0 0 1
    outer loop
      vertex 113.825 -19.4289 11.5
      vertex 112.175 -19.4289 11.5
      vertex 113 -23 11.5
    endloop
  endfacet
  facet normal -0.980785 -0.19509 0
    outer loop
      vertex 108 -18 2
      vertex 108.381 -19.9134 2
      vertex 108 -18 11.5
    endloop
  endfacet
  facet normal -0.980785 -0.19509 0
    outer loop
      vertex 108 -18 11.5
      vertex 108.381 -19.9134 2
      vertex 108.381 -19.9134 11.5
    endloop
  endfacet
  facet normal 0 0 1
    outer loop
      vertex 110.16 -22 2
      vertex 110.049 -21.9263 2
      vertex 110.116 -22 2
    endloop
  endfacet
  facet normal -2.22045e-16 1.22461e-16 1
    outer loop
      vertex 118 4 11.5
      vertex 112.175 1.42894 11.5
      vertex 113.825 1.42894 11.5
    endloop
  endfacet
  facet normal -2.22045e-16 1.22461e-16 1
    outer loop
      vertex 111.35 0 11.5
      vertex 112.175 1.42894 11.5
      vertex 90 4 11.5
    endloop
  endfacet
  facet normal -2.22045e-16 1.22461e-16 1
    outer loop
      vertex 114.65 0 11.5
      vertex 118 0 11.5
      vertex 113.825 1.42894 11.5
    endloop
  endfacet
  facet normal -2.22045e-16 1.22461e-16 1
    outer loop
      vertex 118 0 11.5
      vertex 118 4 11.5
      vertex 113.825 1.42894 11.5
    endloop
  endfacet
  facet normal -2.22045e-16 1.22461e-16 1
    outer loop
      vertex 118 4 11.5
      vertex 90 4 11.5
      vertex 112.175 1.42894 11.5
    endloop
  endfacet
  facet normal -2.22045e-16 1.22461e-16 1
    outer loop
      vertex 90 4 11.5
      vertex 90 0 11.5
      vertex 111.35 0 11.5
    endloop
  endfacet
  facet normal -2.89826e-17 0.991445 0.130526
    outer loop
      vertex 118 4.25556 9.55886
      vertex 90 4.25556 9.55886
      vertex 118 4 11.5
    endloop
  endfacet
  facet normal -2.89826e-17 0.991445 0.130526
    outer loop
      vertex 118 4 11.5
      vertex 90 4.25556 9.55886
      vertex 90 4 11.5
    endloop
  endfacet
  facet normal -8.49728e-17 0.92388 0.382683
    outer loop
      vertex 118 5.00481 7.75
      vertex 101.4 5.00481 7.75
      vertex 118 4.25556 9.55886
    endloop
  endfacet
  facet normal -8.49728e-17 0.92388 0.382683
    outer loop
      vertex 118 4.25556 9.55886
      vertex 101.4 5.00481 7.75
      vertex 101.4 4.27994 9.5
    endloop
  endfacet
  facet normal -8.49728e-17 0.92388 0.382683
    outer loop
      vertex 118 4.25556 9.55886
      vertex 101.4 4.27994 9.5
      vertex 90 4.27994 9.5
    endloop
  endfacet
  facet normal -8.49728e-17 0.92388 0.382683
    outer loop
      vertex 118 4.25556 9.55886
      vertex 90 4.27994 9.5
      vertex 90 4.25556 9.55886
    endloop
  endfacet
  facet normal -1.35172e-16 0.793353 0.608762
    outer loop
      vertex 118 6.1967 6.1967
      vertex 101.4 6.1967 6.1967
      vertex 118 5.00481 7.75
    endloop
  endfacet
  facet normal -1.35172e-16 0.793353 0.608762
    outer loop
      vertex 118 5.00481 7.75
      vertex 101.4 6.1967 6.1967
      vertex 101.4 5.00481 7.75
    endloop
  endfacet
  facet normal -1.7616e-16 0.608762 0.793353
    outer loop
      vertex 118 6.1967 6.1967
      vertex 118 7.75 5.00481
      vertex 101.4 7.75 5.00481
    endloop
  endfacet
  facet normal -1.7616e-16 0.608762 0.793353
    outer loop
      vertex 101.4 6.1967 6.1967
      vertex 118 6.1967 6.1967
      vertex 101.4 7.75 5.00481
    endloop
  endfacet
  facet normal -2.05142e-16 0.382683 0.92388
    outer loop
      vertex 116.4 7.76161 5
      vertex 118 7.75 5.00481
      vertex 118 7.76161 5
    endloop
  endfacet
  facet normal -2.05142e-16 0.382683 0.92388
    outer loop
      vertex 118 7.76161 5
      vertex 118 7.75 5.00481
      vertex 118 9.55886 4.25556
    endloop
  endfacet
  facet normal -2.05142e-16 0.382683 0.92388
    outer loop
      vertex 101.4 7.75 5.00481
      vertex 118 7.75 5.00481
      vertex 116.4 7.76161 5
    endloop
  endfacet
  facet normal -2.05142e-16 0.382683 0.92388
    outer loop
      vertex 101.4 9.55886 4.25556
      vertex 116.4 7.76161 5
      vertex 116.4 9.55886 4.25556
    endloop
  endfacet
  facet normal -2.05142e-16 0.382683 0.92388
    outer loop
      vertex 101.4 7.75 5.00481
      vertex 116.4 7.76161 5
      vertex 101.4 9.55886 4.25556
    endloop
  endfacet
  facet normal -2.05142e-16 -0.382683 0.92388
    outer loop
      vertex 118 15.25 5.00481
      vertex 116.4 15.2384 5
      vertex 118 15.2384 5
    endloop
  endfacet
  facet normal -2.05142e-16 -0.382683 0.92388
    outer loop
      vertex 116.4 13.4411 4.25556
      vertex 116.4 15.2384 5
      vertex 101.4 15.25 5.00481
    endloop
  endfacet
  facet normal -2.05142e-16 -0.382683 0.92388
    outer loop
      vertex 118 13.4411 4.25556
      vertex 118 15.25 5.00481
      vertex 118 15.2384 5
    endloop
  endfacet
  facet normal -2.05142e-16 -0.382683 0.92388
    outer loop
      vertex 118 15.25 5.00481
      vertex 101.4 15.25 5.00481
      vertex 116.4 15.2384 5
    endloop
  endfacet
  facet normal -2.05142e-16 -0.382683 0.92388
    outer loop
      vertex 101.4 15.25 5.00481
      vertex 101.4 13.4411 4.25556
      vertex 116.4 13.4411 4.25556
    endloop
  endfacet
  facet normal -1.7616e-16 -0.608762 0.793353
    outer loop
      vertex 118 15.25 5.00481
      vertex 118 15.4077 5.12581
      vertex 117.194 16.8033 6.1967
    endloop
  endfacet
  facet normal -1.7616e-16 -0.608762 0.793353
    outer loop
      vertex 101.4 15.25 5.00481
      vertex 118 15.25 5.00481
      vertex 101.4 16.8033 6.1967
    endloop
  endfacet
  facet normal -1.7616e-16 -0.608762 0.793353
    outer loop
      vertex 101.4 16.8033 6.1967
      vertex 118 15.25 5.00481
      vertex 117.194 16.8033 6.1967
    endloop
  endfacet
  facet normal 0 0 1
    outer loop
      vertex 104.451 20.2395 19
      vertex 90.6306 16.5 19
      vertex 117.369 16.5 19
    endloop
  endfacet
  facet normal 0 0 1
    outer loop
      vertex 97.2702 28 19
      vertex 90.6306 16.5 19
      vertex 101.557 21.9107 19
    endloop
  endfacet
  facet normal 0 0 1
    outer loop
      vertex 105.992 24.4712 19
      vertex 106.6 22.8 19
      vertex 117.369 16.5 19
    endloop
  endfacet
  facet normal 0 0 1
    outer loop
      vertex 97.2702 28 19
      vertex 101.557 21.9107 19
      vertex 101.557 23.6893 19
    endloop
  endfacet
  facet normal 0 0 1
    outer loop
      vertex 110.73 28 19
      vertex 97.2702 28 19
      vertex 102.7 25.0517 19
    endloop
  endfacet
  facet normal 0 0 1
    outer loop
      vertex 110.73 28 19
      vertex 102.7 25.0517 19
      vertex 104.451 25.3605 19
    endloop
  endfacet
  facet normal 0 0 1
    outer loop
      vertex 110.73 28 19
      vertex 105.992 24.4712 19
      vertex 117.369 16.5 19
    endloop
  endfacet
  facet normal 0 0 1
    outer loop
      vertex 110.73 28 19
      vertex 104.451 25.3605 19
      vertex 105.992 24.4712 19
    endloop
  endfacet
  facet normal 0 0 1
    outer loop
      vertex 102.7 20.5483 19
      vertex 90.6306 16.5 19
      vertex 104.451 20.2395 19
    endloop
  endfacet
  facet normal 0 0 1
    outer loop
      vertex 101.557 21.9107 19
      vertex 90.6306 16.5 19
      vertex 102.7 20.5483 19
    endloop
  endfacet
  facet normal 0 0 1
    outer loop
      vertex 105.992 21.1288 19
      vertex 104.451 20.2395 19
      vertex 117.369 16.5 19
    endloop
  endfacet
  facet normal 0 0 1
    outer loop
      vertex 101.557 23.6893 19
      vertex 102.7 25.0517 19
      vertex 97.2702 28 19
    endloop
  endfacet
  facet normal 0 0 1
    outer loop
      vertex 106.6 22.8 19
      vertex 105.992 21.1288 19
      vertex 117.369 16.5 19
    endloop
  endfacet
  facet normal 0 0 1
    outer loop
      vertex 118 15.5 5
      vertex 117.947 15.5 5
      vertex 118 15.4077 5
    endloop
  endfacet
  facet normal -1.35172e-16 -0.793353 0.608762
    outer loop
      vertex 117.194 16.8033 6.1967
      vertex 116.506 17.9952 7.75
      vertex 101.4 17.9952 7.75
    endloop
  endfacet
  facet normal -1.35172e-16 -0.793353 0.608762
    outer loop
      vertex 101.4 16.8033 6.1967
      vertex 117.194 16.8033 6.1967
      vertex 101.4 17.9952 7.75
    endloop
  endfacet
  facet normal -8.49728e-17 -0.92388 0.382683
    outer loop
      vertex 101.4 18.7201 9.5
      vertex 101.4 17.9952 7.75
      vertex 116.506 17.9952 7.75
    endloop
  endfacet
  facet normal -8.49728e-17 -0.92388 0.382683
    outer loop
      vertex 91.9265 18.7444 9.55886
      vertex 101.4 18.7201 9.5
      vertex 116.074 18.7444 9.55886
    endloop
  endfacet
  facet normal -8.49728e-17 -0.92388 0.382683
    outer loop
      vertex 116.074 18.7444 9.55886
      vertex 101.4 18.7201 9.5
      vertex 116.506 17.9952 7.75
    endloop
  endfacet
  facet normal -8.49728e-17 -0.92388 0.382683
    outer loop
      vertex 91.9124 18.7201 9.5
      vertex 101.4 18.7201 9.5
      vertex 91.9265 18.7444 9.55886
    endloop
  endfacet
  facet normal -2.89826e-17 -0.991445 0.130526
    outer loop
      vertex 116.074 18.7444 9.55886
      vertex 115.926 19 11.5
      vertex 92.074 19 11.5
    endloop
  endfacet
  facet normal -2.89826e-17 -0.991445 0.130526
    outer loop
      vertex 91.9265 18.7444 9.55886
      vertex 116.074 18.7444 9.55886
      vertex 92.074 19 11.5
    endloop
  endfacet
  facet normal 2.89826e-17 -0.991445 -0.130526
    outer loop
      vertex 92.074 19 11.5
      vertex 115.926 19 11.5
      vertex 116.074 18.7444 13.4411
    endloop
  endfacet
  facet normal 2.89826e-17 -0.991445 -0.130526
    outer loop
      vertex 91.9265 18.7444 13.4411
      vertex 92.074 19 11.5
      vertex 116.074 18.7444 13.4411
    endloop
  endfacet
  facet normal 8.49728e-17 -0.92388 -0.382683
    outer loop
      vertex 91.9265 18.7444 13.4411
      vertex 116.074 18.7444 13.4411
      vertex 116.506 17.9952 15.25
    endloop
  endfacet
  facet normal 8.49728e-17 -0.92388 -0.382683
    outer loop
      vertex 91.4939 17.9952 15.25
      vertex 91.9265 18.7444 13.4411
      vertex 116.506 17.9952 15.25
    endloop
  endfacet
  facet normal 1.35172e-16 -0.793353 -0.608762
    outer loop
      vertex 91.4939 17.9952 15.25
      vertex 116.506 17.9952 15.25
      vertex 117.194 16.8033 16.8033
    endloop
  endfacet
  facet normal 1.35172e-16 -0.793353 -0.608762
    outer loop
      vertex 90.8058 16.8033 16.8033
      vertex 91.4939 17.9952 15.25
      vertex 117.194 16.8033 16.8033
    endloop
  endfacet
  facet normal 1.57009e-16 -0.707107 -0.707107
    outer loop
      vertex 90.8058 16.8033 16.8033
      vertex 117.194 16.8033 16.8033
      vertex 117.369 16.5 17.1066
    endloop
  endfacet
  facet normal 1.57009e-16 -0.707107 -0.707107
    outer loop
      vertex 90.6306 16.5 17.1066
      vertex 90.8058 16.8033 16.8033
      vertex 117.369 16.5 17.1066
    endloop
  endfacet
  facet normal -2.71917e-32 -1 1.22461e-16
    outer loop
      vertex 117.369 16.5 17.1066
      vertex 117.369 16.5 19
      vertex 90.6306 16.5 19
    endloop
  endfacet
  facet normal -2.71917e-32 -1 1.22461e-16
    outer loop
      vertex 90.6306 16.5 17.1066
      vertex 117.369 16.5 17.1066
      vertex 90.6306 16.5 19
    endloop
  endfacet
  facet normal -0.866025 0.5 0
    outer loop
      vertex 90.6306 16.5 17.1066
      vertex 90.6306 16.5 19
      vertex 90.8058 16.8033 16.8033
    endloop
  endfacet
  facet normal -0.866025 0.5 0
    outer loop
      vertex 90.8058 16.8033 16.8033
      vertex 90.6306 16.5 19
      vertex 97.2702 28 19
    endloop
  endfacet
  facet normal -0.866025 0.5 0
    outer loop
      vertex 90.8058 16.8033 16.8033
      vertex 97.2702 28 19
      vertex 97.2702 28 9.5
    endloop
  endfacet
  facet normal -0.866025 0.5 0
    outer loop
      vertex 91.9265 18.7444 9.55886
      vertex 97.2702 28 9.5
      vertex 91.9124 18.7201 9.5
    endloop
  endfacet
  facet normal -0.866025 0.5 0
    outer loop
      vertex 92.074 19 11.5
      vertex 97.2702 28 9.5
      vertex 91.9265 18.7444 9.55886
    endloop
  endfacet
  facet normal -0.866025 0.5 0
    outer loop
      vertex 91.9265 18.7444 13.4411
      vertex 97.2702 28 9.5
      vertex 92.074 19 11.5
    endloop
  endfacet
  facet normal -0.866025 0.5 0
    outer loop
      vertex 91.4939 17.9952 15.25
      vertex 97.2702 28 9.5
      vertex 91.9265 18.7444 13.4411
    endloop
  endfacet
  facet normal -0.866025 0.5 0
    outer loop
      vertex 90.8058 16.8033 16.8033
      vertex 97.2702 28 9.5
      vertex 91.4939 17.9952 15.25
    endloop
  endfacet
  facet normal 0 0 1
    outer loop
      vertex 97.2702 28 9.5
      vertex 20.7298 28 9.5
      vertex 26.0876 18.7201 9.5
    endloop
  endfacet
  facet normal 0 0 1
    outer loop
      vertex 91.9124 18.7201 9.5
      vertex 97.2702 28 9.5
      vertex 26.0876 18.7201 9.5
    endloop
  endfacet
  facet normal 0 0 1
    outer loop
      vertex 101.4 18.7201 9.5
      vertex 91.9124 18.7201 9.5
      vertex 26.0876 18.7201 9.5
    endloop
  endfacet
  facet normal -1.7616e-16 -0.608762 0.793353
    outer loop
      vertex 28 15.4077 5.12581
      vertex 28 15.25 5.00481
      vertex 101.4 15.25 5.00481
    endloop
  endfacet
  facet normal -1.7616e-16 -0.608762 0.793353
    outer loop
      vertex 27.1942 16.8033 6.1967
      vertex 28 15.4077 5.12581
      vertex 101.4 16.8033 6.1967
    endloop
  endfacet
  facet normal -1.7616e-16 -0.608762 0.793353
    outer loop
      vertex 101.4 16.8033 6.1967
      vertex 28 15.4077 5.12581
      vertex 101.4 15.25 5.00481
    endloop
  endfacet
  facet normal -2.05142e-16 -0.382683 0.92388
    outer loop
      vertex 101.4 15.25 5.00481
      vertex 90 15.2384 5
      vertex 91.6 15.2384 5
    endloop
  endfacet
  facet normal -2.05142e-16 -0.382683 0.92388
    outer loop
      vertex 90 13.4411 4.25556
      vertex 90 15.2384 5
      vertex 28 15.25 5.00481
    endloop
  endfacet
  facet normal -2.05142e-16 -0.382683 0.92388
    outer loop
      vertex 91.6 13.4411 4.25556
      vertex 101.4 13.4411 4.25556
      vertex 91.6 15.2384 5
    endloop
  endfacet
  facet normal -2.05142e-16 -0.382683 0.92388
    outer loop
      vertex 101.4 13.4411 4.25556
      vertex 101.4 15.25 5.00481
      vertex 91.6 15.2384 5
    endloop
  endfacet
  facet normal -2.05142e-16 -0.382683 0.92388
    outer loop
      vertex 101.4 15.25 5.00481
      vertex 28 15.25 5.00481
      vertex 90 15.2384 5
    endloop
  endfacet
  facet normal -2.05142e-16 -0.382683 0.92388
    outer loop
      vertex 28 15.25 5.00481
      vertex 28 13.4411 4.25556
      vertex 90 13.4411 4.25556
    endloop
  endfacet
  facet normal -2.20145e-16 -0.130526 0.991445
    outer loop
      vertex 90 11.5 4
      vertex 90 13.4411 4.25556
      vertex 28 13.4411 4.25556
    endloop
  endfacet
  facet normal -2.20145e-16 -0.130526 0.991445
    outer loop
      vertex 28 11.5 4
      vertex 90 11.5 4
      vertex 28 13.4411 4.25556
    endloop
  endfacet
  facet normal -2.20145e-16 0.130526 0.991445
    outer loop
      vertex 90 9.55886 4.25556
      vertex 90 11.5 4
      vertex 28 11.5 4
    endloop
  endfacet
  facet normal -2.20145e-16 0.130526 0.991445
    outer loop
      vertex 28 9.55886 4.25556
      vertex 90 9.55886 4.25556
      vertex 28 11.5 4
    endloop
  endfacet
  facet normal -2.05142e-16 0.382683 0.92388
    outer loop
      vertex 101.4 7.75 5.00481
      vertex 101.4 9.55886 4.25556
      vertex 91.6 9.55886 4.25556
    endloop
  endfacet
  facet normal -2.05142e-16 0.382683 0.92388
    outer loop
      vertex 90 7.76161 5
      vertex 101.4 7.75 5.00481
      vertex 91.6 7.76161 5
    endloop
  endfacet
  facet normal -2.05142e-16 0.382683 0.92388
    outer loop
      vertex 91.6 7.76161 5
      vertex 101.4 7.75 5.00481
      vertex 91.6 9.55886 4.25556
    endloop
  endfacet
  facet normal -2.05142e-16 0.382683 0.92388
    outer loop
      vertex 28 7.75 5.00481
      vertex 101.4 7.75 5.00481
      vertex 90 7.76161 5
    endloop
  endfacet
  facet normal -2.05142e-16 0.382683 0.92388
    outer loop
      vertex 28 9.55886 4.25556
      vertex 90 7.76161 5
      vertex 90 9.55886 4.25556
    endloop
  endfacet
  facet normal -2.05142e-16 0.382683 0.92388
    outer loop
      vertex 28 7.75 5.00481
      vertex 90 7.76161 5
      vertex 28 9.55886 4.25556
    endloop
  endfacet
  facet normal -1.7616e-16 0.608762 0.793353
    outer loop
      vertex 101.4 6.1967 6.1967
      vertex 101.4 7.75 5.00481
      vertex 28 7.75 5.00481
    endloop
  endfacet
  facet normal -1.7616e-16 0.608762 0.793353
    outer loop
      vertex 28 6.1967 6.1967
      vertex 101.4 6.1967 6.1967
      vertex 28 7.75 5.00481
    endloop
  endfacet
  facet normal -1.35172e-16 0.793353 0.608762
    outer loop
      vertex 101.4 6.1967 6.1967
      vertex 28 6.1967 6.1967
      vertex 101.4 5.00481 7.75
    endloop
  endfacet
  facet normal -1.35172e-16 0.793353 0.608762
    outer loop
      vertex 101.4 5.00481 7.75
      vertex 28 6.1967 6.1967
      vertex 28 5.00481 7.75
    endloop
  endfacet
  facet normal -8.49728e-17 0.92388 0.382683
    outer loop
      vertex 101.4 5.00481 7.75
      vertex 28 5.00481 7.75
      vertex 101.4 4.27994 9.5
    endloop
  endfacet
  facet normal -8.49728e-17 0.92388 0.382683
    outer loop
      vertex 101.4 4.27994 9.5
      vertex 28 5.00481 7.75
      vertex 28 4.27994 9.5
    endloop
  endfacet
  facet normal 0 0 1
    outer loop
      vertex 28 4.27994 9.5
      vertex 28 0 9.5
      vertex 90 0 9.5
    endloop
  endfacet
  facet normal 0 0 1
    outer loop
      vertex 101.4 4.27994 9.5
      vertex 28 4.27994 9.5
      vertex 90 4.27994 9.5
    endloop
  endfacet
  facet normal 0 0 1
    outer loop
      vertex 90 4.27994 9.5
      vertex 28 4.27994 9.5
      vertex 90 0 9.5
    endloop
  endfacet
  facet normal -8.49728e-17 -0.92388 0.382683
    outer loop
      vertex 26.5061 17.9952 7.75
      vertex 101.4 17.9952 7.75
      vertex 101.4 18.7201 9.5
    endloop
  endfacet
  facet normal -8.49728e-17 -0.92388 0.382683
    outer loop
      vertex 26.0876 18.7201 9.5
      vertex 26.5061 17.9952 7.75
      vertex 101.4 18.7201 9.5
    endloop
  endfacet
  facet normal -1.35172e-16 -0.793353 0.608762
    outer loop
      vertex 27.1942 16.8033 6.1967
      vertex 101.4 16.8033 6.1967
      vertex 101.4 17.9952 7.75
    endloop
  endfacet
  facet normal -1.35172e-16 -0.793353 0.608762
    outer loop
      vertex 26.5061 17.9952 7.75
      vertex 27.1942 16.8033 6.1967
      vertex 101.4 17.9952 7.75
    endloop
  endfacet
  facet normal -1 0 0
    outer loop
      vertex 90 0 9.5
      vertex 90 0 11.5
      vertex 90 4.27994 9.5
    endloop
  endfacet
  facet normal -1 0 0
    outer loop
      vertex 90 4.25556 9.55886
      vertex 90 0 11.5
      vertex 90 4 11.5
    endloop
  endfacet
  facet normal -1 0 0
    outer loop
      vertex 90 4.27994 9.5
      vertex 90 0 11.5
      vertex 90 4.25556 9.55886
    endloop
  endfacet
  facet normal -1 0 0
    outer loop
      vertex 108 -18 2
      vertex 108 -18 11.5
      vertex 108 0 2
    endloop
  endfacet
  facet normal -1 0 0
    outer loop
      vertex 108 0 2
      vertex 108 -18 11.5
      vertex 108 0 11.5
    endloop
  endfacet
  facet normal -2.20145e-16 0.130526 0.991445
    outer loop
      vertex 116.4 9.55886 4.25556
      vertex 116.4 11.5 4
      vertex 101.4 11.5 4
    endloop
  endfacet
  facet normal -2.20145e-16 0.130526 0.991445
    outer loop
      vertex 101.4 9.55886 4.25556
      vertex 116.4 9.55886 4.25556
      vertex 101.4 11.5 4
    endloop
  endfacet
  facet normal -1 0 0
    outer loop
      vertex 116.4 7.76161 5
      vertex 116.4 15.2384 5
      vertex 116.4 9.55886 4.25556
    endloop
  endfacet
  facet normal -1 0 0
    outer loop
      vertex 116.4 9.55886 4.25556
      vertex 116.4 15.2384 5
      vertex 116.4 13.4411 4.25556
    endloop
  endfacet
  facet normal -1 0 0
    outer loop
      vertex 116.4 9.55886 4.25556
      vertex 116.4 13.4411 4.25556
      vertex 116.4 11.5 4
    endloop
  endfacet
  facet normal 0 0 1
    outer loop
      vertex 116.4 15.2384 5
      vertex 116.4 7.76161 5
      vertex 118 7.76161 5
    endloop
  endfacet
  facet normal 0 0 1
    outer loop
      vertex 118 15.2384 5
      vertex 116.4 15.2384 5
      vertex 118 7.76161 5
    endloop
  endfacet
  facet normal 1 0 0
    outer loop
      vertex 118 15.2384 5
      vertex 118 7.76161 5
      vertex 118 9.55886 4.25556
    endloop
  endfacet
  facet normal 1 0 0
    outer loop
      vertex 118 13.4411 4.25556
      vertex 118 15.2384 5
      vertex 118 11.5 4
    endloop
  endfacet
  facet normal 1 0 0
    outer loop
      vertex 118 11.5 4
      vertex 118 15.2384 5
      vertex 118 9.55886 4.25556
    endloop
  endfacet
  facet normal -2.20145e-16 -0.130526 0.991445
    outer loop
      vertex 116.4 11.5 4
      vertex 116.4 13.4411 4.25556
      vertex 101.4 13.4411 4.25556
    endloop
  endfacet
  facet normal -2.20145e-16 -0.130526 0.991445
    outer loop
      vertex 101.4 11.5 4
      vertex 116.4 11.5 4
      vertex 101.4 13.4411 4.25556
    endloop
  endfacet
  facet normal -1 0 0
    outer loop
      vertex 90 7.76161 5
      vertex 90 15.2384 5
      vertex 90 9.55886 4.25556
    endloop
  endfacet
  facet normal -1 0 0
    outer loop
      vertex 90 9.55886 4.25556
      vertex 90 15.2384 5
      vertex 90 13.4411 4.25556
    endloop
  endfacet
  facet normal -1 0 0
    outer loop
      vertex 90 9.55886 4.25556
      vertex 90 13.4411 4.25556
      vertex 90 11.5 4
    endloop
  endfacet
  facet normal -2.20145e-16 -0.130526 0.991445
    outer loop
      vertex 101.4 11.5 4
      vertex 101.4 13.4411 4.25556
      vertex 91.6 13.4411 4.25556
    endloop
  endfacet
  facet normal -2.20145e-16 -0.130526 0.991445
    outer loop
      vertex 91.6 11.5 4
      vertex 101.4 11.5 4
      vertex 91.6 13.4411 4.25556
    endloop
  endfacet
  facet normal 1 0 0
    outer loop
      vertex 91.6 15.2384 5
      vertex 91.6 7.76161 5
      vertex 91.6 9.55886 4.25556
    endloop
  endfacet
  facet normal 1 0 0
    outer loop
      vertex 91.6 13.4411 4.25556
      vertex 91.6 15.2384 5
      vertex 91.6 11.5 4
    endloop
  endfacet
  facet normal 1 0 0
    outer loop
      vertex 91.6 11.5 4
      vertex 91.6 15.2384 5
      vertex 91.6 9.55886 4.25556
    endloop
  endfacet
  facet normal 0 0 1
    outer loop
      vertex 90 15.2384 5
      vertex 90 7.76161 5
      vertex 91.6 7.76161 5
    endloop
  endfacet
  facet normal 0 0 1
    outer loop
      vertex 91.6 15.2384 5
      vertex 90 15.2384 5
      vertex 91.6 7.76161 5
    endloop
  endfacet
  facet normal -2.20145e-16 0.130526 0.991445
    outer loop
      vertex 101.4 9.55886 4.25556
      vertex 101.4 11.5 4
      vertex 91.6 11.5 4
    endloop
  endfacet
  facet normal -2.20145e-16 0.130526 0.991445
    outer loop
      vertex 91.6 9.55886 4.25556
      vertex 101.4 9.55886 4.25556
      vertex 91.6 11.5 4
    endloop
  endfacet
endsolid OpenSCAD_Model
